<svg xmlns="http://www.w3.org/2000/svg" xmlns:xlink="http://www.w3.org/1999/xlink" viewBox="0 0 1008.87 341.78"><defs><style>.cls-1,.cls-10,.cls-11,.cls-15,.cls-20,.cls-40,.cls-54{fill:none;}.cls-2{isolation:isolate;}.cls-3{fill:#2e2f30;}.cls-10,.cls-11,.cls-12,.cls-14,.cls-16,.cls-17,.cls-19,.cls-21,.cls-22,.cls-23,.cls-24,.cls-25,.cls-26,.cls-27,.cls-28,.cls-29,.cls-3,.cls-30,.cls-33,.cls-34,.cls-35,.cls-36,.cls-37,.cls-38,.cls-39,.cls-4,.cls-40,.cls-43,.cls-45,.cls-46,.cls-48,.cls-5,.cls-50,.cls-51,.cls-56,.cls-57,.cls-58,.cls-59,.cls-6,.cls-60,.cls-62,.cls-63,.cls-7,.cls-8{stroke:#000;}.cls-10,.cls-11,.cls-12,.cls-14,.cls-15,.cls-16,.cls-17,.cls-19,.cls-20,.cls-21,.cls-22,.cls-23,.cls-24,.cls-25,.cls-26,.cls-27,.cls-28,.cls-29,.cls-3,.cls-30,.cls-34,.cls-35,.cls-36,.cls-37,.cls-38,.cls-39,.cls-4,.cls-40,.cls-43,.cls-45,.cls-46,.cls-48,.cls-5,.cls-50,.cls-51,.cls-52,.cls-53,.cls-54,.cls-56,.cls-57,.cls-58,.cls-59,.cls-6,.cls-60,.cls-62,.cls-63,.cls-7,.cls-8{stroke-linecap:round;stroke-linejoin:round;}.cls-10,.cls-11,.cls-12,.cls-14,.cls-15,.cls-16,.cls-17,.cls-19,.cls-20,.cls-21,.cls-22,.cls-23,.cls-24,.cls-25,.cls-26,.cls-27,.cls-28,.cls-29,.cls-3,.cls-30,.cls-33,.cls-34,.cls-4,.cls-43,.cls-45,.cls-46,.cls-48,.cls-5,.cls-50,.cls-51,.cls-52,.cls-53,.cls-54,.cls-6,.cls-62,.cls-63,.cls-7,.cls-8{stroke-width:0.5px;}.cls-39,.cls-4{fill:#77685c;}.cls-5{fill:#c9b7a0;}.cls-6{fill:#f4b808;}.cls-7,.cls-9{fill:#ffe496;}.cls-22,.cls-8{fill:#ffca31;}.cls-11,.cls-8,.cls-9{fill-rule:evenodd;}.cls-13,.cls-19,.cls-36{fill:#e3dbd5;}.cls-14{fill:#53978e;}.cls-15{stroke:#12323c;}.cls-16,.cls-18{fill:#12323c;}.cls-17,.cls-64{fill:#f2525a;}.cls-20{stroke:#c9b7a0;}.cls-21,.cls-38,.cls-42,.cls-52,.cls-59{fill:#fff;}.cls-23{fill:#c4941c;}.cls-24,.cls-33{fill:#abc0bc;}.cls-25{fill:#44736c;}.cls-26{fill:#4c5fd5;}.cls-27{fill:#2a3888;}.cls-28{fill:#c6c9ef;}.cls-29{fill:#a0a8e0;}.cls-30,.cls-41,.cls-57{fill:#b3b8ee;}.cls-31{fill:#3a3d3c;}.cls-32{fill:#222322;}.cls-33{stroke-miterlimit:10;}.cls-34{fill:#d89c05;}.cls-35,.cls-63{fill:#d21830;}.cls-35{stroke-width:0.48px;}.cls-36,.cls-37,.cls-38,.cls-39,.cls-40{stroke-width:0.55px;}.cls-40{stroke-dasharray:1.27;}.cls-43{fill:#c49114;}.cls-44{fill:#eff2f4;}.cls-45{opacity:0.2;}.cls-46{fill:#eee4c7;}.cls-47{clip-path:url(#clip-path);}.cls-48{fill:#ffef57;}.cls-49{fill:#f0ebe6;mix-blend-mode:multiply;}.cls-50{fill:#bdb9b5;}.cls-51{fill:#ffb9ce;}.cls-52,.cls-53,.cls-54{stroke:#1f1b0a;}.cls-53{fill:#1f1b0a;}.cls-55{fill:#000e07;}.cls-56,.cls-57,.cls-58,.cls-59,.cls-60{stroke-width:0.52px;}.cls-58{fill:#989fd8;}.cls-60,.cls-61{fill:#dadbf1;}.cls-62{fill:#ffaa05;}.cls-65{fill:#246432;}</style><clipPath id="clip-path"><path class="cls-1" d="M367,115.25c0,5.35,8.68,9.69,19.38,9.69s19.39-4.34,19.39-9.69c0-1.34,11.41-21.66,10.43-26-2.94-13-21.79-17.4-29.82-17.4s-31.84,6.44-34.8,19.41C350.56,95.67,367,113.9,367,115.25Z"/></clipPath></defs><title>Artboard 1 copy</title><g class="cls-2"><g id="Layer_16_copy" data-name="Layer 16 copy"><path class="cls-3" d="M481.9,152.62c-2.85-3.8-10.32-6.49-19.07-6.45s-16.2,2.81-19,6.65h-1.22l0,3.42c0,5.5,9.13,9.91,20.32,9.85s20.24-4.56,20.21-10.06l0-3.41Z"/><ellipse class="cls-4" cx="462.86" cy="152.72" rx="20.27" ry="9.96" transform="translate(-0.78 2.37) rotate(-0.29)"/><path class="cls-5" d="M444.91,141.75l0,9.89c0,4.86,8.06,8.76,17.94,8.71s17.87-4,17.84-8.89l-.05-9.9Z"/><ellipse class="cls-5" cx="462.8" cy="141.66" rx="17.89" ry="8.79" transform="translate(-0.72 2.37) rotate(-0.29)"/><path class="cls-6" d="M477.11,138.39c-2.15-2.87-7.76-4.89-14.35-4.86s-12.18,2.12-14.3,5h-.92l0,2.56c0,4.14,6.86,7.46,15.28,7.42s15.22-3.43,15.2-7.57v-2.57Z"/><ellipse class="cls-7" cx="462.79" cy="138.46" rx="15.24" ry="7.49" transform="translate(-0.7 2.37) rotate(-0.29)"/><path class="cls-8" d="M467.4,9.61s-7.27-2.67-10.81,1-1.34,8.65-.66,11.48.95,7.35-3.53,9.88-6.09,1.21-5.91,11.89,4.15,20.81,5.24,21.17l1.09.36a27.65,27.65,0,0,1-1.92,6.58c-1.37,2.91.1,5.21,1,8.83s.39,10.75,1.6,15.1.75,5.14-.81,9.23-1,8,1.06,14.7,2.36,10.67,1.39,13.58-2.29,3.64,1.21,5.47,8.37,3.7,9.62,3.16.61-3.15,2.85-2.24,5.48-.09,3.95-2.26-7.27-4.61-7.33-9.71,1.86-14.59,2-21.25,1.8-10.17,2.95-16.51,1.91-14.81,1-18.4a27.39,27.39,0,0,1-.87-7.78c0-1.18,4.54-2.37,5-6.13s.73-22.88-2.58-25.89-6.34-1.09-7-2.87-.41-2.44-.41-2.44,3.27-.55,3.46-3.57C469.72,10.57,467.4,9.61,467.4,9.61Z"/><path class="cls-9" d="M467.82,15.14c-.07,4,.4,6.3-.3,4.72s-.32-5.11-3.62-4.24-2,1.07-.39,1,3.63,0,1.19.58-2.47.54-.75.53,2.24-.34,2.38,1.74,0,6.73-.53,6.43a5.15,5.15,0,0,1-1.73-2.69c-.43-1.42.43-1.39-1.26-2.86s-1.94-4.48-.9-6.79S467.9,11.19,467.82,15.14Z"/><path class="cls-9" d="M456,32.74S452.25,39.29,452,41s.49,5,.51,8.77,1.06,2.89,1.06,2.89l-3.15,2.79a25.55,25.55,0,0,1-2.19-8.6c-.21-2.94.13-9.06.12-10.65S456,32.74,456,32.74Z"/><path class="cls-9" d="M462,37s-.58,3.17-2.49,3.38-3.42.94.15,2.63,6.73.76,2.34-6Z"/><path class="cls-9" d="M466.35,36.38s1.22,6.53-.55,8,3.57,2.29,3.68-1.8a7.49,7.49,0,0,0-3.13-6.19Z"/><path class="cls-9" d="M469.05,48.9s-1.26-1.11-6,1.88-11.18,6.52-6.56,5.37,6.18-2.4,9.61-2.22,2.94-5,2.94-5Z"/><path class="cls-9" d="M473.49,38.64,471.12,41,470,51.38s4.91-7.74,3.5-12.74Z"/><path class="cls-9" d="M470.85,57.22l-1.26,4.86s-3,1.91-5.57.67,1.65-4.7,6.83-5.53Z"/><path class="cls-9" d="M463.34,79.66s-1.26-1-3.26-4.66-2.6-4.87-2.63,2,2,10.48,2.59,15.88.7,8.51,1.4,3.62,1.9-16.89,1.9-16.89Z"/><path class="cls-9" d="M471,75.93s-1.73,17.95-2.64,19.87-1.12,2-1.12,2l.36-20,2.5-1.86Z"/><path class="cls-9" d="M457.8,105l1.86,27.42L461,105.85s-1.27-2.76-3.24-.84Z"/><path class="cls-9" d="M465.92,105.43s-.22,8.91-.71,16.23-1.73,10.49-1.73,10.49,1.27-21.83,2.44-26.72Z"/><line class="cls-10" x1="455.49" y1="52.66" x2="453.91" y2="41"/><polyline class="cls-11" points="465.77 77.95 463.34 104.31 462.38 129.06"/><path class="cls-11" d="M459.2,62.13s7,2.64,7.83,2.78,3.45-1,3.45-1"/><path class="cls-11" d="M457.56,52.56s7.9-3.34,10.86-5.8"/><line class="cls-10" x1="470.92" y1="53.97" x2="459.2" y2="62.13"/><path class="cls-9" d="M464.25,136.41c-.57-.38-3.11-3.65-4.12-3.27s-.56,2,1.44,3.91,3.65,1.67,3.9,1.4S464.25,136.41,464.25,136.41Z"/><path class="cls-9" d="M468.24,134.05c-.56-.37-3.11-3.65-4.12-3.26s-.56,2,1.44,3.91,3.65,1.67,3.9,1.39S468.24,134.05,468.24,134.05Z"/><path class="cls-12" d="M257.77,189.6c0,8-13.1,14.42-29.25,14.42s-29.25-6.45-29.25-14.42a7.4,7.4,0,0,1,.44-2.5c2.4-6.77,14.38-11.92,28.81-11.92C244.67,175.18,257.77,181.64,257.77,189.6Z"/><path class="cls-5" d="M190.38,146.15l3.35,42.45c0,7.15,11.75,12.94,26.24,12.94s26.25-5.79,26.25-12.94l3.33-42.1Z"/><path class="cls-13" d="M249.57,146.15c0,8.06-13.25,14.59-29.6,14.59s-29.59-6.53-29.59-14.59a7.57,7.57,0,0,1,.44-2.53c2.43-6.85,14.56-12.06,29.15-12.06C236.32,131.56,249.57,138.09,249.57,146.15Z"/><path class="cls-10" d="M249.57,146.15c0,8.06-13.25,14.59-29.6,14.59s-29.59-6.53-29.59-14.59a7.57,7.57,0,0,1,.44-2.53c2.43-6.85,14.56-12.06,29.15-12.06C236.32,131.56,249.57,138.09,249.57,146.15Z"/><path class="cls-4" d="M245.52,146.5c0,6.95-11.44,12.59-25.55,12.59s-25.54-5.64-25.54-12.59a6.54,6.54,0,0,1,.38-2.18c2.1-5.92,12.57-10.41,25.16-10.41C234.08,133.91,245.52,139.55,245.52,146.5Z"/><path d="M242.3,152.62c-4.37-3.86-12.73-6.47-22.33-6.47s-17.95,2.61-22.32,6.47c4.37,3.86,12.72,6.47,22.32,6.47S237.93,156.48,242.3,152.62Z"/><path class="cls-14" d="M228.81,154.37,253.86,84.3l21.11-41s-30.08,9.34-35.23,16.84S217,124.21,217,124.21l10,27.71Z"/><path class="cls-15" d="M275,43.28s-25.39,15.22-31.19,29.2-19.83,59-19.83,59"/><polygon class="cls-16" points="216.96 154.27 229.63 155.37 293.63 65.2 274.33 80.41 216.96 154.27"/><path class="cls-14" d="M303.54,98.51c8.72,3.87,37.67,15.1,37.67,15.1S309.82,73,304.29,66.41s-10.66-1.21-10.66-1.21l-19.3,15.21a10,10,0,0,1,11,2.29C290.71,87.78,299.07,96.53,303.54,98.51Z"/><path class="cls-14" d="M212.39,126.72s-25.6-51-37.1-54.86-64.38,8.65-64.38,8.65S147.54,87,157.6,93.29s53.46,50.53,53.46,50.53l5.59,6.93Z"/><path class="cls-15" d="M114.55,79.68s50-3.8,61.48,8.57c5,5.43,33.95,41.37,33.95,41.37"/><path class="cls-14" d="M227.9,145.45s-10-80.55-15.38-93.64S190.6,13.69,190.6,13.69l20.78,136Z"/><path class="cls-16" d="M229.13,146.76s-17.49-50.07-21.07-58-11.7-22.65-11.7-22.65l30.3,84.29Z"/><path class="cls-16" d="M223.48,151.13s6.33-37.67,6.6-44-.49-18.61-.49-18.61l-9.9,63.77Z"/><path class="cls-15" d="M191.36,14.85s15.41,42.92,18.2,59,4.34,48.51,4.34,48.51"/><polygon class="cls-16" points="202.38 147.52 209.05 154.2 217.55 157.25 193 122.37 170.89 117.64 202.38 147.52"/><path class="cls-14" d="M193,122.37s-23.26.52-29.86,1.88-16,12.16-16,12.16,1.41-14.88,7.31-17.09,16.35-2.49,16.35-2.49Z"/><path class="cls-16" d="M232.87,150.65l-6.18,8-7.54,0,2.35-7.32s10-27.42,10.79-34.25,3.72-6.24,3.72-6.24l20.8-1.92Z"/><path class="cls-16" d="M223,157.78l-9.87-.09-3.28-3.46-14.19-44.85,25,2.31s4-.37,4.24,4.85S223,157.78,223,157.78Z"/><path class="cls-14" d="M259.78,106.76s15.09,9.31,20.94,31.23c1.89,7.06,1.26,25.12,1.26,25.12s-15.18-5.9-20.55-20.11c-6.65-17.6-25.58-32-25.42-31.77Z"/><path class="cls-14" d="M222.36,111.91s-8.19,2.8-12,6.9c-5.21,5.59-9.64,8.43-12.43,12.23-4.85,6.59-24.83,30.54-24.83,30.54s7.37-33.36,12.65-42.77,8.15-10.53,8.15-10.53Z"/><path class="cls-15" d="M206.83,110.83s-11,4.21-15.64,13.12-17.05,36.36-17.05,36.36"/><path class="cls-15" d="M247.72,109.09s13.41,8.62,18.58,17.76S282,163.11,282,163.11"/><path class="cls-15" d="M286.21,71.05s7.57-1.24,12.67,4.74,41.69,37.58,41.69,37.58"/><path class="cls-15" d="M147.22,135.43s6.93-13.44,10.51-14.21,22.62-2,22.62-2"/><path class="cls-17" d="M235.76,72.41c1.66,4.07-2.66,18.33-5,18.23s-5.45-15.46-3.49-18.58c1.61-2.56,4.24.17,4.24.17S234.61,69.61,235.76,72.41Z"/><path class="cls-17" d="M225.66,111.07c-1.66-4.08,2.66-18.33,5-18.23s5.44,15.45,3.48,18.58c-1.61,2.56-4.24-.17-4.24-.17S226.81,113.87,225.66,111.07Z"/><path class="cls-17" d="M246.71,81.89C245,86,232,93.09,230.36,91.38s6.95-14.84,10.54-15.69c2.95-.7,2.9,3.1,2.9,3.1S247.85,79.09,246.71,81.89Z"/><path class="cls-17" d="M215.7,99.81c1.67-4.07,14.75-11.2,16.35-9.49s-7,14.84-10.55,15.69c-2.94.7-2.9-3.1-2.9-3.1S214.55,102.61,215.7,99.81Z"/><path class="cls-17" d="M241,107.52c-4.08-1.66-11.24-14.71-9.54-16.32s14.86,6.92,15.72,10.51c.71,2.94-3.09,2.91-3.09,2.91S243.8,108.67,241,107.52Z"/><path class="cls-17" d="M220.42,74.61c4.08,1.66,11.24,14.72,9.54,16.33S215.1,84,214.24,80.43c-.71-2.94,3.09-2.91,3.09-2.91S217.62,73.47,220.42,74.61Z"/><path class="cls-17" d="M250.31,95.61c-4,1.91-18.45-1.55-18.5-3.89s15.1-6.37,18.34-4.6c2.65,1.45.08,4.24.08,4.24S253,94.3,250.31,95.61Z"/><path class="cls-17" d="M211.11,87.87c4-1.91,18.45,1.55,18.5,3.89s-15.1,6.37-18.34,4.6c-2.65-1.45-.08-4.25-.08-4.25S208.38,89.18,211.11,87.87Z"/><path class="cls-18" d="M233,91.79a2.54,2.54,0,1,1-2.54-2.54A2.54,2.54,0,0,1,233,91.79Z"/><path class="cls-10" d="M233,91.79a2.54,2.54,0,1,1-2.54-2.54A2.54,2.54,0,0,1,233,91.79Z"/><path class="cls-17" d="M204.73,53.81c1.67,4.08-2.66,18.33-5,18.24s-5.44-15.46-3.48-18.59c1.61-2.56,4.24.18,4.24.18S203.59,51,204.73,53.81Z"/><path class="cls-17" d="M194.82,91.16c-1.66-4.07,2.66-18.33,5-18.23s5.45,15.46,3.49,18.58c-1.61,2.57-4.24-.17-4.24-.17S196,94,194.82,91.16Z"/><path class="cls-17" d="M217,61.59c-1.67,4.07-14.74,11.2-16.35,9.49s7-14.84,10.55-15.69c2.94-.7,2.9,3.1,2.9,3.1S218.17,58.79,217,61.59Z"/><path class="cls-17" d="M182.72,82.08c1.67-4.08,14.74-11.21,16.35-9.5s-7,14.84-10.55,15.69c-2.94.7-2.9-3.09-2.9-3.09S181.57,84.87,182.72,82.08Z"/><path class="cls-17" d="M210.16,87.92c-4.08-1.66-11.24-14.72-9.54-16.33s14.86,6.92,15.72,10.51c.71,2.94-3.09,2.91-3.09,2.91S213,89.06,210.16,87.92Z"/><path class="cls-17" d="M189.58,54.7c4.08,1.66,11.24,14.72,9.54,16.33s-14.86-6.92-15.72-10.51c-.71-2.94,3.09-2.91,3.09-2.91S186.78,53.56,189.58,54.7Z"/><path class="cls-17" d="M219.47,75.7c-4,1.91-18.45-1.55-18.5-3.89s15.1-6.37,18.34-4.6c2.65,1.45.08,4.25.08,4.25S222.2,74.39,219.47,75.7Z"/><path class="cls-17" d="M182.23,68c4-1.91,18.46,1.55,18.5,3.89s-15.1,6.37-18.33,4.6c-2.66-1.45-.09-4.24-.09-4.24S179.51,69.27,182.23,68Z"/><path class="cls-18" d="M202.14,71.88a2.55,2.55,0,1,1-2.54-2.54A2.55,2.55,0,0,1,202.14,71.88Z"/><path class="cls-10" d="M202.14,71.88a2.55,2.55,0,1,1-2.54-2.54A2.55,2.55,0,0,1,202.14,71.88Z"/><polygon class="cls-12" points="62.08 266.46 70.22 256.56 109.54 254.18 112.72 257.78 130.69 243.24 160.68 248.62 170.42 232.45 116.25 191.31 44.3 211.11 62.08 266.46"/><polygon class="cls-5" points="141.93 203.6 91.95 159.07 90.22 41.13 91.95 40.64 161.79 94.86 141.93 203.6"/><polygon class="cls-4" points="159.55 245.82 90.22 180.41 90.22 41.13 157.91 94.06 159.55 245.82"/><polygon class="cls-19" points="89.1 193.46 153.99 244.84 153.99 97.44 89.1 46.07 89.1 193.46"/><polygon class="cls-19" points="86.08 193.9 149.78 247.13 149.78 99.74 86.08 46.51 86.08 193.9"/><polygon class="cls-19" points="83.3 194.34 144.26 247.56 144.26 100.18 83.3 46.95 83.3 194.34"/><polygon class="cls-19" points="80.29 194.77 138.09 248 138.09 100.61 80.29 47.38 80.29 194.77"/><polygon class="cls-19" points="77.05 195.71 130.69 248 130.69 100.61 77.05 48.32 77.05 195.71"/><ellipse class="cls-12" cx="143.79" cy="224.23" rx="15.67" ry="15.01"/><line class="cls-20" x1="149.79" y1="212.17" x2="149.79" y2="241.08"/><line class="cls-20" x1="144.26" y1="211.69" x2="144.26" y2="240.6"/><line class="cls-20" x1="138.63" y1="212.03" x2="138.63" y2="240.94"/><polygon class="cls-5" points="124.88 254.62 161.79 94.86 157.91 94.06 124.88 101.24 124.88 254.62"/><polygon class="cls-5" points="121.45 237.98 70.71 198.48 68.98 45.58 70.71 45.09 124.88 101.24 121.45 237.98"/><path class="cls-4" d="M161.79,94.86V248.25l-37.43,8.31V103.18Zm-18,138.34a11.7,11.7,0,0,0,10-11.18c0-5.44-4.47-9.25-10-8.51a11.7,11.7,0,0,0-10,11.17C133.79,230.12,138.27,233.93,143.79,233.2Z"/><path class="cls-5" d="M161.79,94.86V248.25l-37.43,8.31V103.18ZM145,234.59c5.51-1.23,10-6.63,10-12.06s-4.46-8.86-10-7.63-10,6.62-10,12.06S139.49,235.81,145,234.59Z"/><polygon class="cls-21" points="130.69 187.21 155.99 181.82 155.99 115.96 130.69 121.35 130.69 187.21"/><line class="cls-10" x1="153.96" y1="138.61" x2="132.71" y2="143.34"/><line class="cls-10" x1="153.96" y1="157.35" x2="132.71" y2="162.08"/><line class="cls-10" x1="153.96" y1="176.09" x2="132.71" y2="180.81"/><polygon class="cls-4" points="124.36 256.56 68.98 198.97 68.98 45.58 124.36 103.18 124.36 256.56"/><polygon class="cls-22" points="91.93 211.28 52.94 166.75 51.28 48.81 52.94 48.32 112.72 104.39 91.93 211.28"/><polygon class="cls-23" points="110.57 255.35 51.28 188.09 51.28 48.81 109.01 103.59 110.57 255.35"/><polygon class="cls-19" points="50.21 201.13 105.25 254.37 105.25 106.98 50.21 53.75 50.21 201.13"/><polygon class="cls-19" points="47.31 201.57 99.45 254.81 99.45 107.42 47.31 54.19 47.31 201.57"/><polygon class="cls-19" points="45.39 202.01 94.16 255.24 94.16 107.86 45.39 54.63 45.39 202.01"/><polygon class="cls-19" points="43.47 202.45 88.26 255.68 88.26 108.29 43.47 55.06 43.47 202.45"/><polygon class="cls-19" points="41.53 202.45 81.16 255.68 81.16 108.29 41.53 55.06 41.53 202.45"/><circle class="cls-12" cx="93.71" cy="231.91" r="15.01"/><line class="cls-20" x1="99.45" y1="219.85" x2="99.45" y2="248.76"/><line class="cls-20" x1="94.16" y1="219.37" x2="94.16" y2="248.28"/><line class="cls-20" x1="88.77" y1="219.71" x2="88.77" y2="248.62"/><polygon class="cls-22" points="75.6 262.3 112.72 104.39 109.01 103.59 75.6 108.92 75.6 262.3"/><polygon class="cls-22" points="72.32 245.66 39.29 204.93 37.63 52.03 39.29 51.54 75.6 108.92 72.32 245.66"/><path class="cls-4" d="M112.72,104.39V257.78l-37.61,6.46V110.86ZM93.92,241.76a11.54,11.54,0,0,0,9.57-11.18,8.25,8.25,0,0,0-9.57-8.51,11.52,11.52,0,0,0-9.57,11.17A8.26,8.26,0,0,0,93.92,241.76Z"/><path class="cls-22" d="M112.72,104.39V257.78l-37.61,6.46V110.86ZM94.89,243.15A11.52,11.52,0,0,0,104.46,232a8.26,8.26,0,0,0-9.57-8.52,11.54,11.54,0,0,0-9.57,11.18A8.25,8.25,0,0,0,94.89,243.15Z"/><polygon class="cls-21" points="81.16 194.89 107.16 190.43 107.16 124.56 81.16 129.03 81.16 194.89"/><line class="cls-10" x1="105.22" y1="147.22" x2="83.1" y2="151.02"/><line class="cls-10" x1="105.22" y1="165.95" x2="83.1" y2="169.76"/><line class="cls-10" x1="105.22" y1="184.69" x2="83.1" y2="188.49"/><polygon class="cls-23" points="75.11 264.24 37.63 205.42 37.63 52.03 75.11 110.86 75.11 264.24"/><polygon class="cls-24" points="39.43 217.18 18.95 171.73 17.3 54.71 18.93 54.52 62.08 113.07 39.43 217.18"/><polygon class="cls-25" points="59.92 264.03 17.3 193.06 17.3 54.71 58.36 112.27 59.92 264.03"/><polygon class="cls-19" points="16.22 206.11 52.75 260.27 54.6 115.66 16.22 58.72 16.22 206.11"/><polygon class="cls-19" points="13.33 206.55 46.95 260.71 46.95 113.32 13.33 59.16 13.33 206.55"/><polygon class="cls-19" points="11.41 206.99 41.66 261.15 41.66 113.76 11.41 59.6 11.41 206.99"/><polygon class="cls-19" points="9.49 207.43 35.76 261.58 35.76 114.2 9.49 60.04 9.49 207.43"/><polygon class="cls-19" points="7.55 206.5 28.66 261.58 28.66 113.27 7.55 60.04 7.55 206.5"/><path class="cls-12" d="M26.2,237.81a15,15,0,0,0,15,15c8.29,0,16.86-3.94,16.86-12.23s-8.57-17.78-16.86-17.78A15,15,0,0,0,26.2,237.81Z"/><line class="cls-20" x1="46.95" y1="225.75" x2="46.95" y2="254.66"/><line class="cls-20" x1="41.66" y1="225.27" x2="41.66" y2="254.18"/><line class="cls-20" x1="36.27" y1="225.61" x2="36.27" y2="254.52"/><polygon class="cls-24" points="21.25 266.35 62.08 113.07 57.95 111.7 23.1 113.89 20.76 115.83 21.25 266.35"/><polygon class="cls-24" points="20.76 115.83 5.31 208.98 3.65 56.08 5.17 56.08 23.1 113.89 20.76 115.83"/><path class="cls-4" d="M62.07,113.07V266.46l-41.31,1.83,1.85-152.46ZM42.17,249a11.53,11.53,0,0,0,9.57-11.17c0-5.44-5-10.59-10.32-9.86a11.53,11.53,0,0,0-9.57,11.17C31.85,244.58,36.88,249.74,42.17,249Z"/><path class="cls-14" d="M62.07,113.07V266.46l-41.31,1.83V115.83ZM42.75,249.77a10.66,10.66,0,0,0,9.94-10.45,9.19,9.19,0,0,0-9.94-9.23,10.65,10.65,0,0,0-9.93,10.45A9.19,9.19,0,0,0,42.75,249.77Z"/><polygon class="cls-21" points="28.66 199.87 56.51 199.11 56.51 133.24 28.66 134.93 28.66 199.87"/><line class="cls-10" x1="54.58" y1="155.9" x2="30.6" y2="156.92"/><line class="cls-10" x1="54.58" y1="174.63" x2="30.6" y2="175.66"/><line class="cls-10" x1="54.58" y1="193.37" x2="30.6" y2="194.39"/><polygon class="cls-25" points="20.76 268.29 3.65 209.47 3.65 56.08 20.76 115.83 20.76 268.29"/><path class="cls-12" d="M640.57,275.54l17.71-1.93a8.72,8.72,0,0,0,5.6-2.37l50.77-37.73,42.14-43.92c2.87-3,2.61-5.1-.7-5.64l-48-8.51"/><path class="cls-26" d="M724.17,194.69V151l-122.3,24.37L567.4,170a6.18,6.18,0,0,0-4.26.81l-19.06,18.3c-25.62,12.45-69,43.71-69,43.71l5.58,17.65h.07c.16.36.7.66,1.56.8l155.52,24.32a5.15,5.15,0,0,0,4.26-.82l80-76.69A4.4,4.4,0,0,0,724.17,194.69Z"/><path d="M701.78,210.56h0c-.41.38-.75.21-.75-.39V182.31a2.79,2.79,0,0,1,.75-1.78h0c.42-.38.75-.21.75.39v27.85A2.75,2.75,0,0,1,701.78,210.56Z"/><path d="M705,207.53h0c-.42.38-.75.21-.75-.39V179.29a2.75,2.75,0,0,1,.75-1.79h0c.41-.38.75-.21.75.39v27.85A2.8,2.8,0,0,1,705,207.53Z"/><path d="M708.12,204.45h0c-.42.38-.76.21-.76-.39V176.21a2.76,2.76,0,0,1,.76-1.79h0c.41-.38.75-.21.75.39v27.85A2.8,2.8,0,0,1,708.12,204.45Z"/><path d="M711.28,201.5h0c-.41.38-.75.2-.75-.4V173.25a2.82,2.82,0,0,1,.75-1.79h0c.42-.38.76-.2.76.4v27.85A2.78,2.78,0,0,1,711.28,201.5Z"/><path d="M714.65,198.42h0c-.41.38-.75.2-.75-.4V170.17a2.82,2.82,0,0,1,.75-1.79h0c.41-.38.75-.2.75.4v27.85A2.82,2.82,0,0,1,714.65,198.42Z"/><path class="cls-27" d="M624.18,216.66l-80.1-27.6c-25.62,12.45-69,43.71-69,43.71l5.58,17.65h.07c.16.36.7.66,1.56.8l155.52,24.32"/><path class="cls-28" d="M632.54,258.25l-156.11-24.5c-1.52-.24-1.86-1.73-.65-3.12l44.43-64.55,42.93-39.85a6.23,6.23,0,0,1,4.26-.82l155.52,24.32c1.52.24,1.54,1.48.71,2.17L678.3,194l-41.5,63.46C636,258.48,634.05,258.48,632.54,258.25Z"/><path class="cls-29" d="M520.21,166.08l42.93-39.85a6.23,6.23,0,0,1,4.26-.82l155.52,24.32c1.52.24,1.54,1.48.71,2.17L678.3,194"/><polygon class="cls-26" points="673.15 181.15 545.84 158.68 545.84 119.7 673.15 130.24 673.15 181.15"/><polygon class="cls-12" points="673.15 181.15 706.52 151.17 706.52 103.23 673.15 130.24 673.15 181.15"/><path class="cls-26" d="M728.05,45.36l-27.54-6.47-21.64-3.26-3,104.6,19.63,14.24L720.4,139c3.15-2,3.3-4,3.55-7.24l6-84.54A2.25,2.25,0,0,0,728.05,45.36Z"/><path class="cls-30" d="M705.44,25.31,539.23,9.39a17.55,17.55,0,0,0-3.66-.08l-8.66.42,7.63,7.4L526,141.24a3.4,3.4,0,0,0,2.71,3.8l153.67,14.72,4.77,4.35,9.68-5.94c2.25-1.49,2.66-2.53,2.91-5.11l8.48-124.69A3.26,3.26,0,0,0,705.44,25.31Z"/><path class="cls-26" d="M687.38,28.62l-5,131.14,4.77,4.35,9.68-5.94c2.25-1.49,2.66-2.53,2.91-5.11l8.48-124.69a2.88,2.88,0,0,0-.74-1.92"/><path class="cls-21" d="M685.38,164.6l-167.3-16a3.39,3.39,0,0,1-2.72-3.79L524.44,13a3.19,3.19,0,0,1,3.21-3.22l167.3,16a3.4,3.4,0,0,1,2.72,3.79l-9.09,131.82A3.17,3.17,0,0,1,685.38,164.6Z"/><path class="cls-12" d="M681.35,160.64,522.6,145.43a3.21,3.21,0,0,1-2.57-3.59l8.61-125.08a3,3,0,0,1,3-3.06L690.43,28.91a3.22,3.22,0,0,1,2.57,3.6l-8.61,125.07A3,3,0,0,1,681.35,160.64Z"/><path class="cls-31" d="M644.63,153,526.84,142a3,3,0,0,1-2.41-3.36l8.05-116.85a2.83,2.83,0,0,1,2.84-2.86l117.79,11a3,3,0,0,1,2.41,3.36l-8,116.86A2.82,2.82,0,0,1,644.63,153Z"/><path class="cls-32" d="M524.43,138.61l8.05-116.85a2.83,2.83,0,0,1,2.84-2.86l117.79,11a3,3,0,0,1,2.41,3.36"/><path class="cls-33" d="M640.5,143.77s-25.87.07-53.83-2.77c-22.35-2.27-47.32-6.94-47.32-6.94-2.67-.54-4.25-2.39-4.29-4.64,0,0-2.81-14.42-.33-50.39s7.73-52,7.73-52c.71-2.2,3.51-2.31,4.73-2.19l101.58,9.73a2.54,2.54,0,0,1,2,2.84l-7.24,103.24A3.12,3.12,0,0,1,640.5,143.77Z"/><polygon class="cls-26" points="530.23 200.17 522.11 198.94 520.1 190.14 526.75 188.42 532.41 188.56 535.08 192.92 530.23 200.17"/><polygon class="cls-12" points="530.23 200.17 527.44 191.25 531.83 184.69 535.08 192.92 530.23 200.17"/><polygon class="cls-30" points="527.44 191.25 520.1 190.14 524.49 183.58 531.83 184.69 527.44 191.25"/><polygon class="cls-26" points="539.82 201.76 531.7 200.54 529.69 191.73 536.34 190.01 542 190.16 544.67 194.51 539.82 201.76"/><polygon class="cls-12" points="539.82 201.76 537.03 192.84 541.42 186.28 544.67 194.51 539.82 201.76"/><polygon class="cls-30" points="537.03 192.84 529.69 191.73 534.08 185.18 541.42 186.28 537.03 192.84"/><polygon class="cls-26" points="549.41 203.36 541.29 202.13 539.28 193.33 545.93 191.61 551.59 191.75 554.26 196.11 549.41 203.36"/><polygon class="cls-12" points="549.41 203.36 546.62 194.44 551.01 187.88 554.26 196.11 549.41 203.36"/><polygon class="cls-30" points="546.62 194.44 539.28 193.33 543.67 186.77 551.01 187.88 546.62 194.44"/><polygon class="cls-26" points="559 204.95 550.88 203.73 548.87 194.92 555.52 193.2 561.18 193.35 563.85 197.7 559 204.95"/><polygon class="cls-12" points="559 204.95 556.21 196.03 560.6 189.47 563.85 197.7 559 204.95"/><polygon class="cls-30" points="556.21 196.03 548.87 194.92 553.26 188.37 560.6 189.47 556.21 196.03"/><polygon class="cls-26" points="568.59 206.55 560.47 205.32 558.46 196.52 565.11 194.8 570.77 194.94 573.44 199.3 568.59 206.55"/><polygon class="cls-12" points="568.59 206.55 565.8 197.63 570.19 191.07 573.44 199.3 568.59 206.55"/><polygon class="cls-30" points="565.8 197.63 558.46 196.52 562.85 189.96 570.19 191.07 565.8 197.63"/><polygon class="cls-26" points="578.18 208.15 570.06 206.92 568.05 198.11 574.7 196.39 580.36 196.54 583.03 200.89 578.18 208.15"/><polygon class="cls-12" points="578.18 208.15 575.39 199.22 579.78 192.66 583.03 200.89 578.18 208.15"/><polygon class="cls-30" points="575.39 199.22 568.05 198.11 572.44 191.56 579.78 192.66 575.39 199.22"/><polygon class="cls-26" points="587.77 209.74 579.65 208.51 577.64 199.71 584.29 197.99 589.95 198.13 592.62 202.49 587.77 209.74"/><polygon class="cls-12" points="587.77 209.74 584.98 200.82 589.37 194.26 592.62 202.49 587.77 209.74"/><polygon class="cls-30" points="584.98 200.82 577.64 199.71 582.03 193.15 589.37 194.26 584.98 200.82"/><polygon class="cls-26" points="597.36 211.34 589.24 210.11 587.23 201.3 593.88 199.58 599.54 199.73 602.21 204.08 597.36 211.34"/><polygon class="cls-12" points="597.36 211.34 594.57 202.41 598.96 195.85 602.21 204.08 597.36 211.34"/><polygon class="cls-30" points="594.57 202.41 587.23 201.3 591.62 194.75 598.96 195.85 594.57 202.41"/><polygon class="cls-26" points="606.95 212.93 598.83 211.71 596.82 202.9 603.47 201.18 609.13 201.32 611.8 205.68 606.95 212.93"/><polygon class="cls-12" points="606.95 212.93 604.16 204.01 608.55 197.45 611.8 205.68 606.95 212.93"/><polygon class="cls-30" points="604.16 204.01 596.82 202.9 601.21 196.34 608.55 197.45 604.16 204.01"/><polygon class="cls-26" points="616.54 214.53 608.42 213.3 606.41 204.49 613.06 202.77 618.72 202.92 621.39 207.27 616.54 214.53"/><polygon class="cls-12" points="616.54 214.53 613.75 205.6 618.14 199.04 621.39 207.27 616.54 214.53"/><polygon class="cls-30" points="613.75 205.6 606.41 204.49 610.8 197.94 618.14 199.04 613.75 205.6"/><polygon class="cls-26" points="626.13 216.12 618.01 214.9 616 206.09 622.65 204.37 628.31 204.51 630.98 208.87 626.13 216.12"/><polygon class="cls-12" points="626.13 216.12 623.34 207.2 627.73 200.64 630.98 208.87 626.13 216.12"/><polygon class="cls-30" points="623.34 207.2 616 206.09 620.39 199.53 627.73 200.64 623.34 207.2"/><polygon class="cls-26" points="635.72 217.72 627.6 216.49 625.59 207.68 632.24 205.97 637.9 206.11 640.57 210.46 635.72 217.72"/><polygon class="cls-12" points="635.72 217.72 632.93 208.79 637.32 202.23 640.57 210.46 635.72 217.72"/><polygon class="cls-30" points="632.93 208.79 625.59 207.68 629.98 201.13 637.32 202.23 632.93 208.79"/><polygon class="cls-26" points="520.08 208.23 511.96 207.01 509.95 198.2 516.6 196.48 522.26 196.63 524.93 200.98 520.08 208.23"/><polygon class="cls-12" points="520.08 208.23 517.29 199.31 521.68 192.75 524.93 200.98 520.08 208.23"/><polygon class="cls-30" points="517.29 199.31 509.95 198.2 514.34 191.65 521.68 192.75 517.29 199.31"/><polygon class="cls-26" points="529.67 209.83 521.55 208.6 519.54 199.8 526.19 198.08 531.85 198.22 534.52 202.58 529.67 209.83"/><polygon class="cls-12" points="529.67 209.83 526.88 200.91 531.27 194.35 534.52 202.58 529.67 209.83"/><polygon class="cls-30" points="526.88 200.91 519.54 199.8 523.93 193.24 531.27 194.35 526.88 200.91"/><polygon class="cls-26" points="539.26 211.43 531.14 210.2 529.13 201.39 535.78 199.67 541.44 199.82 544.12 204.17 539.26 211.43"/><polygon class="cls-12" points="539.26 211.43 536.47 202.5 540.86 195.94 544.12 204.17 539.26 211.43"/><polygon class="cls-30" points="536.47 202.5 529.13 201.39 533.52 194.84 540.86 195.94 536.47 202.5"/><polygon class="cls-26" points="548.85 213.02 540.73 211.79 538.72 202.99 545.37 201.27 551.03 201.41 553.71 205.77 548.85 213.02"/><polygon class="cls-12" points="548.85 213.02 546.06 204.1 550.45 197.54 553.71 205.77 548.85 213.02"/><polygon class="cls-30" points="546.06 204.1 538.72 202.99 543.11 196.43 550.45 197.54 546.06 204.1"/><polygon class="cls-26" points="558.44 214.62 550.32 213.39 548.31 204.58 554.96 202.86 560.63 203.01 563.29 207.36 558.44 214.62"/><polygon class="cls-12" points="558.44 214.62 555.65 205.69 560.04 199.13 563.29 207.36 558.44 214.62"/><polygon class="cls-30" points="555.65 205.69 548.31 204.58 552.7 198.03 560.04 199.13 555.65 205.69"/><polygon class="cls-26" points="568.03 216.21 559.91 214.99 557.9 206.18 564.55 204.46 570.22 204.6 572.89 208.96 568.03 216.21"/><polygon class="cls-12" points="568.03 216.21 565.24 207.29 569.63 200.73 572.89 208.96 568.03 216.21"/><polygon class="cls-30" points="565.24 207.29 557.9 206.18 562.29 199.62 569.63 200.73 565.24 207.29"/><polygon class="cls-26" points="577.62 217.81 569.5 216.58 567.49 207.77 574.14 206.05 579.8 206.2 582.48 210.55 577.62 217.81"/><polygon class="cls-12" points="577.62 217.81 574.83 208.88 579.22 202.32 582.48 210.55 577.62 217.81"/><polygon class="cls-30" points="574.83 208.88 567.49 207.77 571.88 201.22 579.22 202.32 574.83 208.88"/><polygon class="cls-26" points="587.21 219.4 579.09 218.18 577.08 209.37 583.73 207.65 589.39 207.79 592.07 212.15 587.21 219.4"/><polygon class="cls-12" points="587.21 219.4 584.42 210.48 588.81 203.92 592.07 212.15 587.21 219.4"/><polygon class="cls-30" points="584.42 210.48 577.08 209.37 581.47 202.81 588.81 203.92 584.42 210.48"/><polygon class="cls-26" points="596.8 221 588.68 219.77 586.67 210.96 593.32 209.25 598.99 209.39 601.66 213.74 596.8 221"/><polygon class="cls-12" points="596.8 221 594.01 212.07 598.4 205.51 601.66 213.74 596.8 221"/><polygon class="cls-30" points="594.01 212.07 586.67 210.96 591.06 204.41 598.4 205.51 594.01 212.07"/><polygon class="cls-26" points="606.39 222.59 598.27 221.37 596.26 212.56 602.91 210.84 608.58 210.98 611.25 215.34 606.39 222.59"/><polygon class="cls-12" points="606.39 222.59 603.6 213.67 607.99 207.11 611.25 215.34 606.39 222.59"/><polygon class="cls-30" points="603.6 213.67 596.26 212.56 600.65 206 607.99 207.11 603.6 213.67"/><polygon class="cls-26" points="615.98 224.19 607.86 222.96 605.85 214.15 612.5 212.44 618.16 212.58 620.84 216.93 615.98 224.19"/><polygon class="cls-12" points="615.98 224.19 613.19 215.26 617.58 208.7 620.84 216.93 615.98 224.19"/><polygon class="cls-30" points="613.19 215.26 605.85 214.15 610.24 207.6 617.58 208.7 613.19 215.26"/><polygon class="cls-26" points="625.57 225.78 617.45 224.56 615.44 215.75 622.09 214.03 627.75 214.17 630.43 218.53 625.57 225.78"/><polygon class="cls-12" points="625.57 225.78 622.78 216.86 627.17 210.3 630.43 218.53 625.57 225.78"/><polygon class="cls-30" points="622.78 216.86 615.44 215.75 619.83 209.19 627.17 210.3 622.78 216.86"/><polygon class="cls-26" points="635.41 227.28 627.29 226.06 625.28 217.25 631.93 215.53 637.6 215.67 640.27 220.03 635.41 227.28"/><polygon class="cls-12" points="635.41 227.28 632.62 218.36 637.01 211.8 640.27 220.03 635.41 227.28"/><polygon class="cls-30" points="632.62 218.36 625.28 217.25 629.67 210.69 637.01 211.8 632.62 218.36"/><polygon class="cls-26" points="513.88 217.13 505.76 215.9 503.75 207.09 510.4 205.37 516.06 205.52 518.74 209.87 513.88 217.13"/><polygon class="cls-12" points="513.88 217.13 511.09 208.2 515.48 201.64 518.74 209.87 513.88 217.13"/><polygon class="cls-30" points="511.09 208.2 503.75 207.09 508.14 200.53 515.48 201.64 511.09 208.2"/><polygon class="cls-26" points="523.47 218.72 515.35 217.5 513.34 208.69 519.99 206.97 525.65 207.11 528.33 211.47 523.47 218.72"/><polygon class="cls-12" points="523.47 218.72 520.68 209.8 525.07 203.24 528.33 211.47 523.47 218.72"/><polygon class="cls-30" points="520.68 209.8 513.34 208.69 517.73 202.13 525.07 203.24 520.68 209.8"/><polygon class="cls-26" points="533.06 220.31 524.94 219.09 522.93 210.28 529.58 208.56 535.25 208.71 537.91 213.06 533.06 220.31"/><polygon class="cls-12" points="533.06 220.31 530.27 211.39 534.66 204.83 537.91 213.06 533.06 220.31"/><polygon class="cls-30" points="530.27 211.39 522.93 210.28 527.32 203.73 534.66 204.83 530.27 211.39"/><polygon class="cls-26" points="542.65 221.91 534.53 220.69 532.52 211.88 539.17 210.16 544.84 210.3 547.5 214.66 542.65 221.91"/><polygon class="cls-12" points="542.65 221.91 539.86 212.99 544.25 206.43 547.5 214.66 542.65 221.91"/><polygon class="cls-30" points="539.86 212.99 532.52 211.88 536.91 205.32 544.25 206.43 539.86 212.99"/><polygon class="cls-26" points="552.24 223.5 544.12 222.28 542.11 213.47 548.76 211.75 554.42 211.9 557.1 216.25 552.24 223.5"/><polygon class="cls-12" points="552.24 223.5 549.45 214.58 553.84 208.02 557.1 216.25 552.24 223.5"/><polygon class="cls-30" points="549.45 214.58 542.11 213.47 546.5 206.92 553.84 208.02 549.45 214.58"/><polygon class="cls-26" points="561.83 225.1 553.71 223.88 551.7 215.07 558.35 213.35 564.01 213.49 566.69 217.85 561.83 225.1"/><polygon class="cls-12" points="561.83 225.1 559.04 216.18 563.43 209.62 566.69 217.85 561.83 225.1"/><polygon class="cls-30" points="559.04 216.18 551.7 215.07 556.09 208.51 563.43 209.62 559.04 216.18"/><polygon class="cls-26" points="571.42 226.7 563.3 225.47 561.29 216.66 567.94 214.94 573.61 215.09 576.28 219.44 571.42 226.7"/><polygon class="cls-12" points="571.42 226.7 568.63 217.77 573.02 211.21 576.28 219.44 571.42 226.7"/><polygon class="cls-30" points="568.63 217.77 561.29 216.66 565.68 210.11 573.02 211.21 568.63 217.77"/><polygon class="cls-26" points="581.01 228.29 572.89 227.07 570.88 218.26 577.53 216.54 583.2 216.68 585.87 221.04 581.01 228.29"/><polygon class="cls-12" points="581.01 228.29 578.22 219.37 582.61 212.81 585.87 221.04 581.01 228.29"/><polygon class="cls-30" points="578.22 219.37 570.88 218.26 575.27 211.7 582.61 212.81 578.22 219.37"/><polygon class="cls-26" points="590.6 229.89 582.48 228.66 580.47 219.85 587.12 218.13 592.78 218.28 595.46 222.63 590.6 229.89"/><polygon class="cls-12" points="590.6 229.89 587.81 220.96 592.2 214.4 595.46 222.63 590.6 229.89"/><polygon class="cls-30" points="587.81 220.96 580.47 219.85 584.86 213.3 592.2 214.4 587.81 220.96"/><polygon class="cls-26" points="600.19 231.48 592.07 230.26 590.06 221.45 596.71 219.73 602.38 219.87 605.05 224.23 600.19 231.48"/><polygon class="cls-12" points="600.19 231.48 597.4 222.56 601.79 216 605.05 224.23 600.19 231.48"/><polygon class="cls-30" points="597.4 222.56 590.06 221.45 594.45 214.89 601.79 216 597.4 222.56"/><polygon class="cls-26" points="609.78 233.08 601.66 231.85 599.65 223.04 606.3 221.32 611.97 221.47 614.64 225.82 609.78 233.08"/><polygon class="cls-12" points="609.78 233.08 606.99 224.15 611.38 217.59 614.64 225.82 609.78 233.08"/><polygon class="cls-30" points="606.99 224.15 599.65 223.04 604.04 216.49 611.38 217.59 606.99 224.15"/><polygon class="cls-26" points="629.52 236.24 611.25 233.45 609.24 224.64 626.04 224.48 631.7 224.63 634.38 228.98 629.52 236.24"/><polygon class="cls-12" points="629.52 236.24 626.73 227.31 631.12 220.75 634.38 228.98 629.52 236.24"/><polygon class="cls-30" points="626.73 227.31 609.24 224.64 613.63 218.08 631.12 220.75 626.73 227.31"/><polygon class="cls-26" points="515.13 226.89 507.01 225.66 505 216.86 511.65 215.14 517.32 215.28 519.99 219.64 515.13 226.89"/><polygon class="cls-12" points="515.13 226.89 512.34 217.97 516.73 211.41 519.99 219.64 515.13 226.89"/><polygon class="cls-30" points="512.34 217.97 505 216.86 509.39 210.3 516.73 211.41 512.34 217.97"/><polygon class="cls-26" points="524.72 228.49 516.6 227.26 514.59 218.45 521.24 216.73 526.9 216.88 529.58 221.23 524.72 228.49"/><polygon class="cls-12" points="524.72 228.49 521.93 219.56 526.32 213 529.58 221.23 524.72 228.49"/><polygon class="cls-30" points="521.93 219.56 514.59 218.45 518.98 211.9 526.32 213 521.93 219.56"/><polygon class="cls-26" points="534.31 230.08 526.19 228.85 524.18 220.05 530.83 218.33 536.5 218.47 539.17 222.83 534.31 230.08"/><polygon class="cls-12" points="534.31 230.08 531.52 221.16 535.91 214.6 539.17 222.83 534.31 230.08"/><polygon class="cls-30" points="531.52 221.16 524.18 220.05 528.57 213.49 535.91 214.6 531.52 221.16"/><polygon class="cls-26" points="591.51 239.7 535.78 230.45 533.77 221.64 588.03 227.95 593.7 228.09 596.37 232.44 591.51 239.7"/><polygon class="cls-12" points="591.51 239.7 588.72 230.77 593.11 224.22 596.37 232.44 591.51 239.7"/><polygon class="cls-30" points="588.72 230.77 533.77 221.64 538.16 215.09 593.11 224.22 588.72 230.77"/><polygon class="cls-26" points="601.44 241.25 593.32 240.02 591.31 231.22 597.96 229.5 603.63 229.64 606.3 233.99 601.44 241.25"/><polygon class="cls-12" points="601.44 241.25 598.65 232.32 603.04 225.76 606.3 233.99 601.44 241.25"/><polygon class="cls-30" points="598.65 232.32 591.31 231.22 595.7 224.66 603.04 225.76 598.65 232.32"/><polygon class="cls-26" points="611.03 242.84 602.91 241.62 600.9 232.81 607.55 231.09 613.22 231.23 615.89 235.59 611.03 242.84"/><polygon class="cls-12" points="611.03 242.84 608.24 233.92 612.63 227.36 615.89 235.59 611.03 242.84"/><polygon class="cls-30" points="608.24 233.92 600.9 232.81 605.29 226.25 612.63 227.36 608.24 233.92"/><polygon class="cls-26" points="620.62 244.44 612.5 243.21 610.49 234.41 617.14 232.69 622.81 232.83 625.48 237.18 620.62 244.44"/><polygon class="cls-12" points="620.62 244.44 617.83 235.51 622.22 228.95 625.48 237.18 620.62 244.44"/><polygon class="cls-30" points="617.83 235.51 610.49 234.41 614.88 227.85 622.22 228.95 617.83 235.51"/><path class="cls-22" d="M671.26,40.4a7.14,7.14,0,0,0-1.87.21,11.17,11.17,0,0,0-1.67.47l-2.2.83a24.74,24.74,0,0,0-1.4,4.39,29.78,29.78,0,0,0,.32,4.43l2,1.23a11.59,11.59,0,0,0,1.64,1,6.42,6.42,0,0,0,1.91.51,6.55,6.55,0,0,0,1.24-13Z"/><path class="cls-34" d="M664.12,46.3a29.78,29.78,0,0,0,.32,4.43l2,1.23a11.59,11.59,0,0,0,1.64,1,6.42,6.42,0,0,0,1.91.51,6.55,6.55,0,0,0,7.14-5.9"/><circle class="cls-22" cx="667.64" cy="46.63" r="5.18"/><path class="cls-17" d="M669.62,62.68a7.14,7.14,0,0,0-1.87.21,11.55,11.55,0,0,0-1.68.47l-2.19.83a24.19,24.19,0,0,0-1.4,4.39A29.65,29.65,0,0,0,662.8,73l2,1.24a13,13,0,0,0,1.64,1,6.48,6.48,0,0,0,9.06-5.39A6.56,6.56,0,0,0,669.62,62.68Z"/><path class="cls-35" d="M662.48,68.58A29.65,29.65,0,0,0,662.8,73l2,1.24a13,13,0,0,0,1.64,1,6.48,6.48,0,0,0,9.06-5.39"/><circle class="cls-17" cx="666" cy="68.92" r="5.18"/><path class="cls-22" d="M668.24,85.2a7.31,7.31,0,0,0-1.87.2,11.52,11.52,0,0,0-1.67.48l-2.2.82a24.92,24.92,0,0,0-1.4,4.4,29.78,29.78,0,0,0,.32,4.43l2,1.23a12.29,12.29,0,0,0,1.64,1,6.43,6.43,0,0,0,1.91.52,6.55,6.55,0,0,0,1.24-13Z"/><path class="cls-34" d="M661.1,91.1a29.78,29.78,0,0,0,.32,4.43l2,1.23a12.29,12.29,0,0,0,1.64,1,6.43,6.43,0,0,0,1.91.52,6.55,6.55,0,0,0,7.14-5.9"/><circle class="cls-22" cx="664.62" cy="91.43" r="5.18"/><path d="M547.73,42l1.07.1-.12,2.21,1.09.1-.06,1.09,1.07.1-.06,1.09-1.07-.09.06-1.1-1.09-.09-.13,2.22-1.07-.1.13-2.21-1.07-.1-.06,1.1-1.1-.1.07-1.09,1.09.09.06-1.09,1.07.09Zm-2.22.91,1.09.1-.06,1.12-1.09-.1Zm4.32.38,1.07.09-.06,1.12-1.07-.09Z"/><path d="M556.35,42.75l1.07.1-.12,2.21,1.09.1-.06,1.09,1.07.1-.06,1.09-1.07-.09.06-1.1-1.09-.09-.13,2.22-1.07-.1.13-2.21L555.1,46l-.06,1.1-1.1-.1.07-1.09,1.09.09.06-1.09,1.07.09Zm-2.22.91,1.09.1-.06,1.12-1.09-.1Zm4.33.38,1.06.09-.06,1.12-1.07-.09Z"/><path d="M565,43.51l1.07.09-.12,2.22,1.09.09L567,47l1.07.09L568,48.2l-1.07-.1L567,47l-1.09-.1-.13,2.22-1.06-.1.12-2.21-1.07-.1-.06,1.1-1.1-.09.07-1.1,1.09.09.06-1.09,1.07.09Zm-2.22.9,1.09.1-.06,1.12-1.09-.1Zm4.33.38,1.06.09L568.08,46,567,45.91Z"/><path d="M571,52.89l-.13,2.21L569.73,55l.12-2.22Zm1.19-2.1L572,53,571,52.89l.12-2.2Zm1.19-2.13-.12,2.22-1.07-.09.12-2.22Zm1.22-2.12-.12,2.22-1.1-.1.13-2.21Zm1.19-2.1-.12,2.19-1.07-.09.12-2.19Zm.13-2.21,1.07.09-.13,2.22-1.07-.1Z"/><path d="M580.71,52.65l-.07,1.11-1.07-.1.06-1.1ZM580,45.92l1.08.09-.06,1.1L579.94,47Zm.71,6.73.06-1.11,1.08.09-.07,1.11Zm.31-5.54,1.07.1L582,48.32,581,48.23Zm.83,4.52.06-1.1,1.08.09-.07,1.11Zm.18-3.31,1.08.09-.06,1.11-1.08-.1Zm1,2.3.06-1.1,1.08.09-.06,1.11Z"/><path d="M589.33,53.4l-.06,1.11-1.08-.1.06-1.1Zm-.71-6.73,1.08.09-.06,1.1-1.08-.09Zm.71,6.73.06-1.11,1.08.09-.07,1.12Zm.31-5.54,1.07.1-.06,1.11L589.57,49Zm.83,4.52.06-1.1,1.08.09-.07,1.11Zm.18-3.31,1.08.09-.06,1.11-1.08-.09Zm1,2.3.06-1.1,1.08.09-.06,1.11Z"/><path d="M543.38,61.81l4.33.38-.06,1.09,1.07.09-.07,1.1,1.07.09-.37,6.63-1.06-.09-.07,1.12-1.07-.1-.06,1.1-4.32-.38.06-1.09.49-8.85Zm.54,10,3.23.28.07-1.12,1.07.1.36-6.63-1.06-.09.06-1.1L544.41,63Z"/><path d="M552.62,70.38l.07-1.11,4.31.37.13-2.2,1.08.1-.37,6.62-1.08-.09.06-1.11-1.09-.1L555.67,74l-3.23-.29.06-1.11-1.06-.09.12-2.2Zm0,0-.12,2.2,3.23.28.06-1.08,1.09.09.06-1.11ZM554,66l3.23.29-.06,1.11-3.24-.28-.06,1.11-1.06-.1.06-1.11,1.06.1Z"/><path d="M560.44,66.62l2.14.18-.06,1.11-2.14-.18Zm2.34-3.12,1.07.09-.18,3.31,3.23.28-.06,1.11L563.61,68l-.31,5.52,3.23.28-.06,1.11-3.23-.29.06-1.1-1.08-.09Z"/><path d="M569.86,71.88l.07-1.11,4.31.38.13-2.2,1.08.09-.36,6.63-1.09-.1.06-1.11L573,74.37l-.06,1.11-3.23-.28.06-1.12L568.68,74l.12-2.2Zm0,0-.12,2.2,3.23.29.06-1.09,1.09.09.06-1.11Zm1.34-4.34,3.23.29L574.37,69l-3.23-.29-.07,1.11L570,69.68l.06-1.11,1.07.09Z"/><path d="M544.16,86.5l3.23.28-.06,1.11,1.09.1-.31,5.51L547,93.41,547,94.52l-4.32-.38-.18,3.31-1.06-.09.62-11,1.06.1L543,87.52l1.09.09ZM547,93.41l.31-5.52-3.23-.28L544,88.73l-1.09-.1-.24,4.4Z"/><path d="M552.8,87.24l3.22.3L556,88.65l-3.22-.3-.06,1.11-1.08-.09-.31,5.53-1.08-.1.43-7.75,1.08.1-.06,1.1,1.08.1ZM556,88.65l1.09.09L557,89.85l-1.09-.09Z"/><path d="M560,94.54l-1.07-.09.3-5.52,1.08.09Zm4.32.38-.07,1.1-4.31-.37.06-1.11Zm-3.95-7,4.31.37-.06,1.11L560.27,89Zm4.25,1.48,1.08.09L565.35,95l-1.07-.09Z"/><path d="M568.6,95.29l-1.09-.09.31-5.53,1.09.1Zm0,0,4.3.38-.06,1.1-4.3-.38Zm.37-6.62,4.3.37-.06,1.1,1.09.1-.06,1.11-1.09-.1.06-1.11-4.3-.37Zm4,5.9,1.08.09L574,95.75l-1.09-.1Z"/><path d="M577.57,89.42l4.32.37-.07,1.11,1.08.09-.12,2.21-.06,1.11-5.39-.47-.12,2.2,4.31.38-.06,1.1-4.32-.37.07-1.11L576.13,96l.31-5.52,1.07.09-.12,2.21,4.31.38.12-2.21-4.31-.38Z"/><path d="M584.81,95.6l1.09.09-.06,1.09-1.09-.1Zm1.39-5.44,4.31.38-.07,1.1,1.09.1-.06,1.11-1.09-.1.06-1.11-4.31-.37-.12,2.2,4.31.38-.06,1.1,1.08.1-.13,2.21-1.07-.1-.06,1.11-4.31-.38.06-1.1,4.31.37.12-2.21L586,94.58l.06-1.11-1.08-.09.13-2.21,1.07.1Z"/><path d="M593.43,96.35l1.09.09-.06,1.09-1.09-.09Zm1.39-5.44,4.31.38-.06,1.1,1.08.1-.06,1.11L599,93.5l.07-1.11L594.76,92l-.13,2.21,4.31.37-.06,1.1,1.08.1L599.84,98l-1.08-.1L598.7,99l-4.31-.38.06-1.1,4.31.37.12-2.21-4.31-.37.06-1.1-1.07-.1.12-2.21,1.08.1Z"/><path d="M603.45,91.66l3.23.29-.06,1.11-.31,5.51,2.15.19-.07,1.11L603,99.4l.06-1.11,2.14.19.31-5.52-2.15-.18Zm2.27-2,1.08.1,0,1.11-1.09-.09Z"/><path d="M611,92.32l1.06.09L612,93.53l1.09.09L613,94.73l-1.08-.09-.31,5.51-1.06-.09Zm2.15.19,3.23.28-.06,1.11,1.08.1-.36,6.62-1.09-.09.37-6.63-3.23-.28Z"/><path d="M620.66,93.17l3.23.28-.06,1.12,1.09.09.06-1.11,1.09.09-.56,9.94-1.08-.09-.07,1.11-4.31-.38.06-1.11-1.06-.09.06-1.09,1.06.09-.06,1.09,4.32.38.18-3.32-1.08-.09-.07,1.11-3.23-.28.06-1.11-1.06-.09.31-5.52,1.06.09Zm3.17,1.4-3.23-.29-.31,5.52,3.24.28.06-1.09,1.08.1.19-3.31-1.09-.1Z"/><path d="M539.4,114.06l8.61.74-.06,1.11-8.61-.75Z"/><g id="mug"><path class="cls-12" d="M722.42,309.75c5.86,1.14,16.17-1.39,21.57-3.51,10.8-4.25,14.44-14.82,5.73-20.66a39.17,39.17,0,0,0-15.66-6.69l-25.19-1.95L713.22,305Z"/><path class="cls-21" d="M701.44,277a40.56,40.56,0,0,1-9.19-9.9c-3.66-5.54-6.58-16.4-2.53-22.39a9.17,9.17,0,0,1,6-4.07,10.32,10.32,0,0,1,1.69-.14c2.77,0,8.46,2.3,9.82,3.07l-6.73,3.78a7.34,7.34,0,0,0-3.06-.83,3.63,3.63,0,0,0-.67.06,3.14,3.14,0,0,0-2.07,1.51c-1,1.44-1.22,4.08-.66,7.23a23.75,23.75,0,0,0,3.23,8.45,35.39,35.39,0,0,0,7.41,8.13Z"/><path class="cls-21" d="M747.56,295.09c0,3.79-2.5,7.57-7.51,10.46-10,5.78-26.23,5.78-36.24,0-5-2.89-7.5-6.67-7.5-10.46V253.24h51.25Z"/><ellipse class="cls-21" cx="721.93" cy="253.24" rx="25.63" ry="14.79"/><path class="cls-5" d="M705.61,251.66a33.18,33.18,0,0,1,16.32-3.87c6.2,0,12,1.37,16.32,3.87a13.63,13.63,0,0,1,5.26,4.91,6.91,6.91,0,0,0,.9-3.33c0-3-2.18-5.94-6.16-8.24a36.35,36.35,0,0,0-32.64,0c-4,2.3-6.16,5.22-6.16,8.24a6.91,6.91,0,0,0,.9,3.33A13.7,13.7,0,0,1,705.61,251.66Z"/><ellipse class="cls-5" cx="721.92" cy="253.21" rx="22.49" ry="12.15"/><path class="cls-4" d="M705.61,244.85c-3.82,2.18-6.17,5.12-6.17,8.36s2.35,6.18,6.17,8.35"/></g><polygon points="279.4 290.35 353.21 188.47 474.65 216.93 402.95 312.06 279.4 290.35"/><polygon class="cls-36" points="474.32 196.71 356.13 180.37 278.94 272.05 402.48 293.33 474.32 196.71"/><polygon class="cls-37" points="474.32 196.71 359.65 178.22 347.95 283.22 406.38 288.17 474.32 196.71"/><path class="cls-38" d="M407.11,280.94l-58.8,2.25-70.1-11.8,66.91-84.71,8.66-15.59s8.21,6.23,17,7.21,103.6,18.55,103.6,18.55-57.48,77.59-59.13,79.75A11.89,11.89,0,0,1,407.11,280.94Z"/><path class="cls-36" d="M407.11,280.94a12.54,12.54,0,0,1-9.59-5.38l-50.12,7.38Z"/><polygon class="cls-36" points="402.59 310.82 278.89 288.68 278.21 271.39 402.48 293.33 402.59 310.82"/><polygon class="cls-39" points="402.59 310.82 474.46 215.28 474.33 196.88 402.48 293.33 402.59 310.82"/><polyline class="cls-40" points="278.45 274.74 402.34 297.19 474.36 200.63"/><polyline class="cls-40" points="278.72 278.49 402.43 300.9 474.34 205.22"/><polyline class="cls-40" points="279 282.23 402.51 304.61 474.43 208.65"/><polyline class="cls-40" points="279 286.23 402.51 308.61 474.43 212.65"/><path class="cls-41" d="M362.63,191c0,.12.11.16.22.21C362.85,191,362.78,191,362.63,191Z"/><polygon class="cls-41" points="362.85 191.16 362.86 191.16 362.85 191.16 362.85 191.16"/><path class="cls-41" d="M394.53,192.12l-.13,0Z"/><path class="cls-41" d="M369.1,192.91l.18-.18c.33.07-.09.23.25.25.35-.23.48.14.71,0,0,0,.12.06,0,.13.17-.12.18,0,.31,0s0,0,0-.09h.26c.05.07,0,.15-.11.15a37.74,37.74,0,0,0,3.81,1c0-.13-.24-.1-.16-.28.24-.06.21.08.37,0-.16.27.3.14.21.42l.17-.13v.1c.85,0,.22,0,.84.14.39.06.74-.09.88,0,0,0,0-.11.09-.12-.09.12.34,0,.28.1.11,0,.4.09.44-.11,0,.1.23.2,0,.24.09,0,.16.07.26,0l-.08-.07c.33,0,.39.21.73.1l-.06-.09c.2,0,.37,0,.3.24h-.24a2.69,2.69,0,0,0,.85.06l-.09,0c.48-.09,2.35.15,2.84,0l0-.16.36-.06s-.49.41-.48.36c.59.11,3.69.66,4.16.87.15.13-.14.23-.16.25.31,0,.23-.12.45-.06,0,0-.1.1-.15.12.12,0,.17.07.23,0s.1-.24.13-.36l.28.08-.09.1c.06,0,.39-.25.63-.13.45.15,1,.23,1.48.36a.55.55,0,0,1-.32.09c.06,0,.18,0,.2.09,0-.14.27,0,.21-.1.56-.19.85.15,1.3.05.21-.23,3.72-3.83,3.92-4.1.1,0,.19,0,.2.08s-.14-.14-.27-.12l-.13.14c-.28,0,0-.1-.23-.14.08-.12.31-.1.5-.07-.15,0-.26-.17-.42,0-.12-.09.13-.14,0-.23s-.42.08-.52,0v0c-.28-.19-.71.06-1-.13l.07,0c-.07-.09-.38-.05-.54-.16.05,0,0,.13-.11.12s-.42-.09-.53-.22l-.26.08c-.85-.2-4.35-.72-5.22-.88h.05c-1.33-.21-3.93-.75-5.36-.86-.11-.15-.41-.18-.59-.25.08.07,0,.13-.12.11-.62-.14-.1.07-.78,0a25.92,25.92,0,0,1-4.07-.95c-.48.08-.81-.12-1.23-.09l.07,0c-.41,0-2.3-.57-2.76-.6l0,0c-.45,0-.25-.14-.48-.24-.12.17-.52.21-.64.2l0,0c-.2,0-.73.06-1,0l.1-.09a3,3,0,0,1-.93-.11,4,4,0,0,0-1.45-.39l-.09-.33-7.47-1.65-3,3.83,6.69,1.9.15,0c.12.08.3,0,.2.08L363,191c.14.07,0,.09-.14.13a.3.3,0,0,1,.14.1c.07,0,0,0,0-.08s.33-.08.4,0-.14.16,0,.22a29.53,29.53,0,0,0,3,.86c0,.05,0,0-.09.05.37,0,.65.11,1,.13,0,.06,0,.13,0,.17A8.68,8.68,0,0,1,369.1,192.91Z"/><path class="cls-41" d="M332.89,238.57l.18-.18c.33.07-.09.23.25.25.35-.23.48.14.71,0,0,0,.12.06,0,.13.17-.12.18,0,.31,0s0,0,0-.09h.26c0,.07,0,.15-.11.15a37.74,37.74,0,0,0,3.81,1c0-.13-.24-.1-.17-.28.25-.06.22.08.37,0-.15.27.31.14.22.42l.17-.13v.11c.86,0,.23,0,.85.13.39.07.74-.09.88,0,0,0,0-.11.09-.12-.09.12.34,0,.28.1.1,0,.4.09.44-.11,0,.1.23.2,0,.24.09,0,.16.07.26,0l-.08-.07c.33,0,.39.21.73.1l-.06-.09c.2,0,.37,0,.3.24h-.24a2.67,2.67,0,0,0,.85.06l-.09,0c.48-.09,2.35.15,2.84,0l0-.16.35-.06s-.48.41-.47.36c.58.11,3.69.66,4.15.87.16.13-.13.23-.15.25.31,0,.23-.12.45-.06,0,0-.1.1-.15.12.11,0,.17.07.23,0s.1-.24.13-.36l.28.08-.1.1c.07,0,.4-.25.64-.13.45.15,1,.23,1.48.36a.55.55,0,0,1-.32.09c.06,0,.17,0,.2.09,0-.14.26,0,.21-.1.56-.19.84.15,1.3.05.21-.23,3.71-3.83,3.92-4.1.09,0,.19,0,.2.08s-.15-.14-.28-.12l-.12.14c-.28,0,0-.1-.23-.14.08-.12.31-.1.5-.07-.16,0-.26-.17-.42,0-.12-.08.12-.14,0-.23s-.42.08-.53,0l0,0c-.28-.19-.71.06-1-.13l.07,0c-.07-.09-.38-.05-.54-.16,0,0,0,.13-.11.12s-.42-.09-.53-.22l-.26.08c-.85-.2-4.35-.72-5.22-.88h.05c-1.33-.21-3.94-.75-5.36-.86-.11-.15-.41-.18-.59-.25.07.07,0,.13-.12.11-.62-.14-.1.07-.79,0a25.79,25.79,0,0,1-4.06-.95c-.49.08-.81-.12-1.23-.09l.07,0c-.41,0-2.3-.57-2.76-.6l0,0c-.44,0-.24-.13-.47-.24-.12.17-.52.21-.65.2l0,0c-.2,0-.74.06-1,0l.1-.1a2.92,2.92,0,0,1-.92-.11,4,4,0,0,0-1.45-.39l-.09-.33-5.21-1.48-3.79,4,5.22,1.6.15,0c.12.08.3,0,.2.08l-.22-.06c.14.07,0,.09-.14.13a.33.33,0,0,1,.15.1c.07,0,0,0,0-.08s.33-.07.39,0-.13.16.06.22a29.53,29.53,0,0,0,3,.86c0,.05,0,0-.09.05.37,0,.64.11,1,.13.05.06,0,.13,0,.18A8,8,0,0,1,332.89,238.57Z"/><path class="cls-41" d="M433,204.87l.18-.18c.33.07-.09.23.25.25.35-.23.48.14.71,0,0,0,.12.06,0,.13.17-.12.18,0,.31,0s0-.05,0-.09h.26c0,.07,0,.15-.11.15a37.74,37.74,0,0,0,3.81,1c0-.13-.24-.1-.17-.28.25-.06.22.08.37,0-.15.27.31.14.22.42l.17-.13v.11c.86,0,.23,0,.85.13.39.06.74-.09.88,0,0,0,0-.11.09-.12-.09.12.34,0,.28.1.11,0,.4.09.44-.11,0,.1.23.2,0,.24.09,0,.16.07.26,0l-.08-.07c.33,0,.39.21.73.1l-.06-.09c.2,0,.37.05.3.24h-.24a2.69,2.69,0,0,0,.85.06l-.09,0c.48-.09,2.35.15,2.84,0l0-.16.36-.06s-.49.41-.48.36c.59.11,3.69.66,4.15.87.16.13-.13.23-.15.25.31,0,.23-.12.45-.06,0,0-.1.1-.15.12.11,0,.17.07.23,0-.09-.08.1-.24.13-.36l.28.08-.1.1c.07,0,.4-.25.64-.13.45.15,1,.23,1.48.36a.55.55,0,0,1-.32.09c.06,0,.17,0,.2.09,0-.14.26,0,.21-.1.56-.19.84.15,1.3.05.21-.23,3.72-3.83,3.92-4.1.09,0,.19.05.2.08s-.15-.14-.28-.12l-.12.14c-.28,0,0-.1-.23-.14.08-.12.31-.1.5-.07-.15-.05-.26-.17-.42-.05-.12-.09.12-.14,0-.23s-.42.08-.52,0v0c-.28-.19-.71.06-1-.13l.07,0c-.07-.09-.38-.05-.54-.16,0,0,0,.13-.11.12s-.42-.09-.53-.22l-.26.08c-.85-.2-4.35-.72-5.22-.88h0c-1.33-.21-3.93-.75-5.36-.86-.11-.15-.41-.18-.59-.25.07.07,0,.13-.12.11-.62-.14-.1.07-.78,0a25.66,25.66,0,0,1-4.07-1c-.49.08-.81-.12-1.23-.09l.07,0c-.41,0-2.3-.57-2.76-.6l0,0c-.44,0-.24-.14-.47-.24-.12.17-.52.21-.65.2l0,0c-.2,0-.73.06-1,0l.09-.09a2.92,2.92,0,0,1-.92-.11,4,4,0,0,0-1.45-.39l-.09-.33-.07,0s-3.63,3.11-3.61,4l-.1.09.15,0c.12.08.3,0,.2.08l-.22-.06c.14.07,0,.09-.14.13a.33.33,0,0,1,.15.1c.07,0,0-.05,0-.08s.33-.07.4,0-.14.16.05.22a29.53,29.53,0,0,0,3,.86s0,0-.09,0c.37,0,.64.11,1,.13.05.06,0,.13,0,.17A8.68,8.68,0,0,1,433,204.87Z"/><path class="cls-41" d="M398.48,198.06c0,.13.07.17.16.21C398.64,198.14,398.6,198.07,398.48,198.06Z"/><polygon class="cls-41" points="398.64 198.27 398.64 198.27 398.64 198.27 398.64 198.27"/><path class="cls-41" d="M422.38,197h-.1A.16.16,0,0,0,422.38,197Z"/><path class="cls-41" d="M403.3,199.69l.15-.2c.25,0-.09.25.17.25.29-.27.36.11.54,0,0,0,.09.06,0,.15.14-.15.14,0,.24,0s0,0,0-.1l.2,0a.12.12,0,0,1-.1.16,17.86,17.86,0,0,0,2.82.76c0-.13-.18-.08-.11-.28s.16.08.28,0c-.13.29.23.12.13.43l.14-.16v.12c.64-.05.17-.06.62.08.29,0,.57-.16.67,0s0-.12.08-.14c-.08.14.25-.06.19.09.09,0,.3.06.35-.15,0,.11.15.19,0,.25.06,0,.11.06.19,0l-.06-.08c.25,0,.28.2.55.06l0-.09c.15,0,.27,0,.2.23l-.18,0a1.38,1.38,0,0,0,.64,0l-.07,0c.37-.14,1.75,0,2.13-.21v-.17l.27-.09s-.4.47-.39.41a26.85,26.85,0,0,1,3,.62c.11.12-.11.25-.13.27.23,0,.18-.14.34-.09s-.08.12-.12.13.11.07.16,0,.1-.26.13-.39l.2.06-.08.12c.05,0,.32-.3.48-.19.32.13.73.17,1.07.27a.4.4,0,0,1-.25.12c.05,0,.13,0,.14.08,0-.15.2-.06.17-.12.43-.24.61.1.95-.05.17-.25,3.05-4.28,3.22-4.57.07,0,.13,0,.14.07s-.09-.14-.19-.11l-.11.15c-.2,0,0-.1-.15-.12.07-.13.23-.13.37-.12-.11,0-.17-.15-.3,0-.08-.08.1-.16,0-.24s-.32.12-.39,0l0,0c-.19-.19-.53.11-.7-.07l.06,0c-.05-.09-.28,0-.39-.13s0,.13-.09.13-.3-.06-.37-.19l-.2.1c-.61-.15-3.15-.46-3.78-.57h0c-1-.13-2.87-.52-3.93-.55-.07-.15-.29-.16-.42-.22.05.06,0,.14-.1.13-.45-.11-.08.07-.59,0a13.09,13.09,0,0,1-3-.74c-.37.12-.6-.07-.92,0l.06,0c-.32,0-1.7-.45-2.05-.45l0,0c-.34.05-.17-.13-.34-.23a.62.62,0,0,1-.51.26l0,0a5.44,5.44,0,0,1-.8.1l.08-.11a1.66,1.66,0,0,1-.7-.05,1.85,1.85,0,0,0-1.08-.32l0-.35,0,0s-3.05,3.61-3.1,4.53l-.09.11h.11c.09.09.24,0,.15.08l-.16,0c.1.06,0,.1-.12.15a.15.15,0,0,1,.1.09c.06,0,0-.05,0-.08s.26-.11.31,0-.12.18,0,.23a13.65,13.65,0,0,0,2.24.71s0,0-.07.06c.28,0,.48.07.74.07a.22.22,0,0,1,0,.18A4.54,4.54,0,0,1,403.3,199.69Z"/><path class="cls-41" d="M410.55,228.73l.16-.21c.24,0-.09.25.17.25.29-.27.36.11.54,0,0,0,.09.05,0,.14.14-.15.14,0,.23,0s0-.06,0-.11l.2,0a.12.12,0,0,1-.1.16,17.86,17.86,0,0,0,2.82.77c0-.14-.18-.08-.11-.29s.16.08.28,0c-.14.29.22.13.13.43l.14-.15v.11c.65-.05.18-.05.63.09.29,0,.56-.16.66-.05s0-.11.08-.14c-.08.14.26-.06.2.09s.3.06.34-.14c0,.1.16.18,0,.24.07,0,.12.06.19,0l-.05-.07c.25,0,.28.2.54.06l0-.1c.14,0,.27,0,.2.23l-.18,0a1.26,1.26,0,0,0,.64,0l-.07,0c.37-.14,1.75,0,2.12-.21v-.17l.27-.08s-.39.46-.38.41a23,23,0,0,1,3,.62c.11.12-.12.24-.13.27.22,0,.18-.15.33-.1s-.08.12-.12.14.12.06.17,0,.09-.25.13-.38l.2.06-.08.12s.31-.3.48-.19.73.16,1.06.27c0,.07-.14.09-.24.12s.13,0,.14.07c0-.14.2-.05.16-.12.43-.23.61.1,1,0,.17-.26,3.05-4.28,3.22-4.58.06,0,.13,0,.14.07s-.1-.13-.19-.11l-.11.16c-.2,0,0-.11-.15-.13.06-.13.23-.13.37-.11-.11,0-.18-.16-.31,0-.08-.07.11-.15,0-.24s-.31.12-.38,0v0c-.19-.18-.52.12-.69-.07l.05,0c0-.09-.27,0-.38-.14a.09.09,0,0,1-.09.13c-.13-.11-.3-.06-.37-.18l-.2.1c-.61-.15-3.15-.47-3.78-.57l0,0c-1-.12-2.87-.52-3.94-.54-.06-.15-.28-.16-.42-.23.06.07,0,.15-.09.13-.46-.11-.09.08-.59,0a12.59,12.59,0,0,1-3-.74c-.37.13-.6-.07-.92,0l.05,0c-.31,0-1.7-.46-2.05-.46l0,0c-.34,0-.18-.13-.34-.23a.67.67,0,0,1-.51.26l0-.05a5.44,5.44,0,0,1-.8.1l.08-.1a1.64,1.64,0,0,1-.7-.06,2,2,0,0,0-1.08-.32l0-.35-.06,0s-3,3.61-3.1,4.53l-.08.11H406c.09.08.24,0,.15.07l-.16,0c.1.06,0,.1-.12.15s.08,0,.1.09,0,0,0-.08.27-.1.31,0-.12.18,0,.22a14.08,14.08,0,0,0,2.25.71s0,0-.07.06c.27,0,.48.07.74.07a.25.25,0,0,1,0,.19A4.42,4.42,0,0,1,410.55,228.73Z"/><path d="M394.44,195.3a.25.25,0,0,1-.14,0c-.86-.55-2.39-.54-3.86-.53-1.75,0-3.41,0-4.31-.81l-.15-.15a.91.91,0,0,0-.42-.31,3.45,3.45,0,0,0-1.48.19c-.75.19-1.45.38-1.87,0a1,1,0,0,1-.28-.65c-.05-.3-.07-.33-.21-.34a1.72,1.72,0,0,0-.62.13l-.17.06a2.72,2.72,0,0,1-2.87-.54,1.25,1.25,0,0,1-.28-.72,3.89,3.89,0,0,1-2.51.64,1,1,0,0,1-.88-.85,1,1,0,0,1,.18-.72,8.77,8.77,0,0,1-2.95-.25,6.49,6.49,0,0,1-5.05,1.65.25.25,0,0,1-.2-.17.26.26,0,0,1,.06-.25l.09-.09a20.7,20.7,0,0,1-6.86,2.05c-.36,0-1.23.08-1.59-.28a.57.57,0,0,1-.15-.47,1.43,1.43,0,0,1,.52-.75A31.93,31.93,0,0,1,371.6,185a.24.24,0,0,1,.3.18.24.24,0,0,1-.17.3,31.5,31.5,0,0,0-13,7c-.11.11-.34.33-.36.46s.56.25,1.19.18a20.38,20.38,0,0,0,8.4-3,31,31,0,0,1,2.58-2,.25.25,0,0,1,.32.39,16.06,16.06,0,0,1-2.59,2c-.4.35-.79.71-1.16,1.08a6.13,6.13,0,0,0,4.2-1.66.23.23,0,0,1,.25-.07,9,9,0,0,0,3.7.19.25.25,0,0,1,.28.18.26.26,0,0,1-.14.3c-.46.21-.59.54-.56.75s.2.37.47.42a3.6,3.6,0,0,0,2.65-.92.26.26,0,0,1,.32,0,.26.26,0,0,1,.06.32.73.73,0,0,0,.06.87,2.23,2.23,0,0,0,2.33.38l.16,0a2.19,2.19,0,0,1,.83-.16c.55.06.61.5.65.76s0,.29.12.35.85,0,1.42-.11a3.71,3.71,0,0,1,1.73-.19,1.41,1.41,0,0,1,.65.44l.13.13c.75.7,2.39.68,4,.68s3.15,0,4.14.61a.26.26,0,0,1,.08.35A.26.26,0,0,1,394.44,195.3Z"/><path d="M400.58,201a.93.93,0,0,1-.57-.16.21.21,0,0,1-.11-.19.24.24,0,0,1,.09-.2A62.14,62.14,0,0,1,409.5,194a.26.26,0,0,1,.34.1.24.24,0,0,1-.1.34,62.22,62.22,0,0,0-9,6,3.75,3.75,0,0,0,1.35-.51,17.49,17.49,0,0,0,4.17-3.29.24.24,0,0,1,.27-.07.25.25,0,0,1,.16.24,1.32,1.32,0,0,0,.54,1,4.1,4.1,0,0,0,3.39.48.27.27,0,0,1,.29.15.24.24,0,0,1-.11.31l-.3.18a28.31,28.31,0,0,0,4.39-.63.26.26,0,0,1,.3.17.28.28,0,0,1-.14.31c-.31.13-.43.34-.43.49a.28.28,0,0,0,.15.27,3.38,3.38,0,0,0,1.75,0l.36-.06a7.25,7.25,0,0,1,1.77-.16,4.64,4.64,0,0,1,1.23.35,2.45,2.45,0,0,0,1.79.21.26.26,0,0,1,.32.16.25.25,0,0,1-.16.32,3,3,0,0,1-2.14-.22,4.14,4.14,0,0,0-1.09-.32,6.38,6.38,0,0,0-1.64.15l-.36.07a3.38,3.38,0,0,1-2.07-.1.78.78,0,0,1-.41-.73.72.72,0,0,1,.06-.29,29.24,29.24,0,0,1-4.68.51c-.13,0-.21-.07-.24-.18a.23.23,0,0,1,.11-.28l.12-.07a4,4,0,0,1-2.57-.74,1.93,1.93,0,0,1-.65-.9,18.42,18.42,0,0,1-3.93,3A4.16,4.16,0,0,1,400.58,201Z"/><path d="M455.23,204.89h-.07a35,35,0,0,0-8.07-1.16l-.76,0a15.41,15.41,0,0,1-3.81-.41l-.21-.07a2.86,2.86,0,0,0-.83-.18,5.33,5.33,0,0,0-2,.49,5,5,0,0,1-2.27.5.25.25,0,0,1-.21-.18.26.26,0,0,1,.08-.26,9.66,9.66,0,0,0,2.1-2.28L433.92,204a.25.25,0,0,1-.32-.08.26.26,0,0,1,0-.33,16.4,16.4,0,0,0,2.27-2.41,6,6,0,0,1-1.42.24.22.22,0,0,1-.25-.17.23.23,0,0,1,.09-.28,5.5,5.5,0,0,0,1.45-1.38.25.25,0,0,1,.35-.06.24.24,0,0,1,.06.35,5,5,0,0,1-.83.92,5.36,5.36,0,0,0,1.11-.37.25.25,0,0,1,.3.07.24.24,0,0,1,0,.3,14,14,0,0,1-1.57,2l4.53-2.32a.25.25,0,0,1,.34.33A9,9,0,0,1,438,203.5a9.48,9.48,0,0,0,1.34-.44,5.93,5.93,0,0,1,2.14-.52,3.4,3.4,0,0,1,1,.2l.21.07a14.64,14.64,0,0,0,3.68.39l.75,0a35.62,35.62,0,0,1,8.2,1.18.25.25,0,0,1,.17.31A.25.25,0,0,1,455.23,204.89Z"/><path d="M385.58,206.77h-.07a72.45,72.45,0,0,0-16.3-2.5l-.61,0a21.51,21.51,0,0,1-5-.58c-.71.06-1.41.08-2.1.07a1.43,1.43,0,0,1-1.09-.32c-.36-.44.09-.95.49-1.4a3.33,3.33,0,0,0,.46-.63A100.35,100.35,0,0,1,351,202.59a.23.23,0,0,1-.25-.18.24.24,0,0,1,.13-.29,31.55,31.55,0,0,1,6.34-2.28.24.24,0,0,1,.3.18.25.25,0,0,1-.18.3,31.14,31.14,0,0,0-5,1.68c3-.24,6.12-.62,9.2-1.14a.22.22,0,0,1,.21.06c.47.42,0,1-.41,1.42-.2.22-.56.64-.47.76s.3.12.71.13.69,0,1,0a.28.28,0,0,1,0-.16.25.25,0,0,1,.17-.22,6.74,6.74,0,0,1,4.23-.17.23.23,0,0,1,.17.25.27.27,0,0,1-.2.23c-.58.13-1.17.24-1.75.33,1.09.16,2.29.21,3.46.26l.62,0a72.38,72.38,0,0,1,16.41,2.52.25.25,0,0,1-.07.49Zm-22-3.66.12,0c.61-.05,1.23-.13,1.85-.24A7.13,7.13,0,0,0,363.56,203.11Z"/><path d="M446.64,216.5h0a64.53,64.53,0,0,1-11.42-1.87A69.36,69.36,0,0,0,425,212.85l-.2,0a5.88,5.88,0,0,1-3.17-.78,9.41,9.41,0,0,1-3.47.48,1.64,1.64,0,0,1-1.43-1,1.05,1.05,0,0,1,0-.7,34.69,34.69,0,0,1-5.42.32c-.67,0-1.39-.1-1.63-.56a.69.69,0,0,1,.2-.77,1.14,1.14,0,0,1,1.17-.38.25.25,0,0,1,.13.32.25.25,0,0,1-.33.14.59.59,0,0,0-.5.16.57.57,0,0,0-.22.3c.09.17.49.27,1.19.29a34.92,34.92,0,0,0,5.88-.39.22.22,0,0,1,.25.14.23.23,0,0,1,0,.28.68.68,0,0,0-.21.69,1.21,1.21,0,0,0,1,.64,9.6,9.6,0,0,0,3.4-.51.26.26,0,0,1,.25.07c.55.55,1.83.65,3,.74H425a69.76,69.76,0,0,1,10.29,1.79A63.82,63.82,0,0,0,446.65,216a.25.25,0,0,1,.24.26A.26.26,0,0,1,446.64,216.5Z"/><path d="M420.37,229.81c-.42,0-1.09-.05-1.19-.53s.32-.77.71-1.1c.1-.08.26-.22.38-.34a29.4,29.4,0,0,1-4.86.51,2.3,2.3,0,0,1-1.64-.38.68.68,0,0,1-.19-.47c0-.41.4-.77.79-1.1a43.38,43.38,0,0,1,3.65-2.8,93.48,93.48,0,0,1-8.7,3.42,2.52,2.52,0,0,1-1.9.14.28.28,0,0,1-.12-.19.25.25,0,0,1,.07-.2c.42-.43.86-.85,1.32-1.25a1.24,1.24,0,0,1-.51.13.41.41,0,0,1-.41-.34.4.4,0,0,1,.3-.45.25.25,0,0,1,.32.16.19.19,0,0,1,0,.08,2.23,2.23,0,0,0,.27-.14l2.72-1.58a.25.25,0,0,1,.27.42,29.17,29.17,0,0,0-3.61,3,4.24,4.24,0,0,0,1.11-.26,90.54,90.54,0,0,0,12.92-5.47.24.24,0,0,1,.33.1.25.25,0,0,1-.09.34,48.07,48.07,0,0,0-7.63,5.27c-.18.15-.6.51-.61.74a.14.14,0,0,0,.05.1,2.1,2.1,0,0,0,1.28.23,28.68,28.68,0,0,0,5.2-.59.26.26,0,0,1,.29.16c.16.43-.27.79-.68,1.14-.21.17-.58.49-.56.61s0,.15.89.14l7.41-.17h0a.26.26,0,0,1,.25.24.26.26,0,0,1-.25.26l-7.4.17Zm-12.22-4.71.07.24h0Z"/><path d="M366.8,234.45a2.88,2.88,0,0,1-2.18-.64c-.42-.46-.64-1.34.71-3a14.52,14.52,0,0,1,1.75-1.76,47.21,47.21,0,0,1-11,1.08c-2.28-.06-3-.65-3.21-1.24a6.71,6.71,0,0,1-2.49.41,1.37,1.37,0,0,1-1.2-.75.82.82,0,0,1-.05-.41,34.76,34.76,0,0,1-6.53.87,1.24,1.24,0,0,1-1-.23.47.47,0,0,1-.1-.36,1,1,0,0,1,.39-.52c.06-.06.13-.11.18-.17s.09-.2.08-.22a1,1,0,0,0-.89-.3,7.42,7.42,0,0,0-1.33.26c-.35.09-.71.18-1.07.24a2.8,2.8,0,0,1-2.79-.94,1.5,1.5,0,0,1-.21-1.16,9.43,9.43,0,0,1-2,.69c-.84.16-2,.11-2.34-.55a.87.87,0,0,1,0-.84,1.94,1.94,0,0,1,1.44-1,.24.24,0,0,1,.28.21.25.25,0,0,1-.21.29,1.42,1.42,0,0,0-1.06.72.38.38,0,0,0,0,.36c.19.34,1,.47,1.82.31a10.85,10.85,0,0,0,2.5-.92.26.26,0,0,1,.29.06.26.26,0,0,1,0,.3,1.11,1.11,0,0,0,0,1.24,2.32,2.32,0,0,0,2.3.72c.33-.05.68-.14,1-.22a7.92,7.92,0,0,1,1.42-.28,1.45,1.45,0,0,1,1.38.58.69.69,0,0,1-.15.77,2.39,2.39,0,0,1-.23.22,1.8,1.8,0,0,0-.2.19,1.42,1.42,0,0,0,.51,0,34.72,34.72,0,0,0,6.95-1,.26.26,0,0,1,.28.11.27.27,0,0,1,0,.3.39.39,0,0,0-.13.43.89.89,0,0,0,.78.43,7.29,7.29,0,0,0,2.57-.47.27.27,0,0,1,.23,0,.26.26,0,0,1,.1.2c0,.89,1.93,1,2.76,1.06a46.38,46.38,0,0,0,11.87-1.3,23,23,0,0,1,9.78-4.18.27.27,0,0,1,.26.13.26.26,0,0,1,0,.29c-1.33,1.51-3.8,2.45-5.55,3-1.4.46-2.81.86-4.22,1.2a15.57,15.57,0,0,0-2.49,2.34c-.5.61-1.26,1.72-.72,2.32.41.44,1.44.57,3.08.39a32.07,32.07,0,0,0,11.69-3.8.24.24,0,0,1,.3.05.26.26,0,0,1,0,.31,1.4,1.4,0,0,0-.24,1.17,1.21,1.21,0,0,0,.74.76,4.49,4.49,0,0,0,3.52-.4.25.25,0,1,1,.24.43,4.93,4.93,0,0,1-4,.43,1.72,1.72,0,0,1-1-1.08,1.74,1.74,0,0,1,0-.88,32.51,32.51,0,0,1-11.23,3.51A12.91,12.91,0,0,1,366.8,234.45ZM377,224.83a23,23,0,0,0-7.66,3.18c1-.26,1.95-.55,2.92-.86A15.23,15.23,0,0,0,377,224.83Z"/><path d="M419.69,241.57a.28.28,0,0,1-.13,0,7.74,7.74,0,0,0-3.2-.48c-1.64,0-3.18-.07-3.78-1l-.05-.08c-.08-.14-.12-.19-.21-.2a1.29,1.29,0,0,0-.52.08l-.28.07a1.2,1.2,0,0,1-1.43-.54.84.84,0,0,1,0-.68c-.37,0-.74.13-1.12.21a4.32,4.32,0,0,1-2.54.12.92.92,0,0,1-.58-.81,1.23,1.23,0,0,1,.17-.66c-1,.3-2.09.56-3.14.79-.7.14-1.55.26-1.94-.14s0-1.1.52-1.63a6,6,0,0,0,.52-.66,21.85,21.85,0,0,1-4.55,1.15c-1.37.19-2.26.08-2.74-.33a.81.81,0,0,1-.21-.91,1.69,1.69,0,0,1,1.42-1.11.25.25,0,0,1,.28.23.25.25,0,0,1-.23.27,1.21,1.21,0,0,0-1,.76.38.38,0,0,0,.07.39,3.27,3.27,0,0,0,2.34.21,22.11,22.11,0,0,0,4.89-1.3.22.22,0,0,1,.21,0,.23.23,0,0,1,.13.17c.08.49-.35,1-.76,1.44s-.68.8-.53,1,.46.21,1.47,0c1.38-.3,2.75-.66,4.09-1.07a.25.25,0,0,1,.31.14.26.26,0,0,1-.11.32,1.15,1.15,0,0,0-.71,1,.43.43,0,0,0,.28.37,4.23,4.23,0,0,0,2.24-.14,9.35,9.35,0,0,1,1.75-.28.25.25,0,0,1,.24.17.24.24,0,0,1-.08.28c-.23.18-.31.39-.23.57a.75.75,0,0,0,.87.26,1.83,1.83,0,0,0,.25-.06,1.68,1.68,0,0,1,.73-.1.76.76,0,0,1,.57.45l0,.06c.46.73,1.94.77,3.37.8a7.85,7.85,0,0,1,3.44.55.24.24,0,0,1,.09.34A.24.24,0,0,1,419.69,241.57Z"/><path d="M357.33,240.59a.23.23,0,0,1-.14,0,5.42,5.42,0,0,0-2.72-.38c-.35,0-.7,0-1,0a2.94,2.94,0,0,1-2.4-1,1,1,0,0,1-.11-.35,7.8,7.8,0,0,1-4.31,1.08,2.94,2.94,0,0,1-2.84-1.88c-2.22.9-4.78.56-5.56-.74a20.46,20.46,0,0,0-2.13.34c-.44.09-.89.18-1.33.25a4.83,4.83,0,0,1-3.39-.34,1.15,1.15,0,0,1-.49-1.1,1.55,1.55,0,0,1,.23-.64c-1.05.32-2.11.61-3.17.87a4.22,4.22,0,0,1-1.59.17,1.1,1.1,0,0,1-.87-.58,1.3,1.3,0,0,1,.06-1.18,3.4,3.4,0,0,1,.43-.61l-3.43,1.63a.25.25,0,0,1-.21-.45l5-2.36a.24.24,0,0,1,.32.09.25.25,0,0,1-.06.33,6.13,6.13,0,0,0-1.58,1.6.85.85,0,0,0-.06.72.65.65,0,0,0,.51.32,4,4,0,0,0,1.4-.17c1.45-.35,2.9-.76,4.33-1.24a.26.26,0,0,1,.31.15.24.24,0,0,1-.14.32,1.45,1.45,0,0,0-.95,1.09.65.65,0,0,0,.28.63,4.51,4.51,0,0,0,3,.25c.44-.07.88-.15,1.31-.24a19.53,19.53,0,0,1,2.36-.36.26.26,0,0,1,.24.15c.57,1.2,3.23,1.47,5.28.52a.24.24,0,0,1,.23,0,.25.25,0,0,1,.12.2c.07.93,1.05,1.64,2.44,1.75a7.27,7.27,0,0,0,4.54-1.35.23.23,0,0,1,.32,0,.24.24,0,0,1,0,.32.5.5,0,0,0-.08.55,2.5,2.5,0,0,0,2,.76c.33,0,.67,0,1,0a5.76,5.76,0,0,1,3,.46.27.27,0,0,1,.07.35A.26.26,0,0,1,357.33,240.59Z"/><path d="M409,250.71h0l-7.19-1.47c-1.52-.32-3.09-.64-4.54-1.08a7.57,7.57,0,0,1-3.47-1.91,3.32,3.32,0,0,1-3.47-.53,1.3,1.3,0,0,1-.35-1.09,17.7,17.7,0,0,1-5.18,1.22,3.79,3.79,0,0,1-3-1.06,1.38,1.38,0,0,1-.31-.95,1.76,1.76,0,0,1-.78-.11.25.25,0,0,1-.15-.15.25.25,0,0,1,0-.21l.61-1a23.78,23.78,0,0,1-7.23,1.79c-2.9.16-5.24-.64-6.11-2.08a.25.25,0,0,1,.09-.34.24.24,0,0,1,.34.08c.77,1.27,3,2,5.65,1.84a24.12,24.12,0,0,0,7.8-2,.25.25,0,0,1,.31.36l-.85,1.33a1.67,1.67,0,0,0,.54,0,.25.25,0,0,1,.29.31.94.94,0,0,0,.17.87,3.37,3.37,0,0,0,2.63.86,19.12,19.12,0,0,0,5.5-1.36.25.25,0,0,1,.28.07.26.26,0,0,1,0,.28.85.85,0,0,0,.1,1,2.89,2.89,0,0,0,3.08.33.25.25,0,0,1,.3.09,6.8,6.8,0,0,0,3.34,1.87c1.42.44,3,.76,4.49,1.07l7.19,1.47a.25.25,0,0,1-.05.49Z"/><path d="M384.67,220.36h0l-11.34-1.72c-1.06-.17-1.71-.47-1.94-.9a.93.93,0,0,1-.08-.28,6.06,6.06,0,0,1-4.95-.54,12.07,12.07,0,0,1-3.19.43,2.5,2.5,0,0,1-1.78-.69,1,1,0,0,1-.24-.44c-2.33.77-4.91.48-6-.71l-.1-.12a1,1,0,0,0-.39-.34,3.32,3.32,0,0,0-1.39,0l-.46.05c-.25,0-1.12.06-1.49-.35a.59.59,0,0,1-.15-.51.27.27,0,0,1,.06-.12l0-.05a7.8,7.8,0,0,1-2.95.52,1.74,1.74,0,0,1-1.58-1,1,1,0,0,1,0-.59,15.24,15.24,0,0,1-3.74.83c-1.1.1-1.78-.05-2.09-.44a.69.69,0,0,1,0-.79,1.47,1.47,0,0,1,1.31-.77.25.25,0,0,1,0,.5,1,1,0,0,0-.84.5s-.09.18,0,.25.47.36,1.65.26a15.15,15.15,0,0,0,4.3-1.07.25.25,0,0,1,.3.1.25.25,0,0,1,0,.32.72.72,0,0,0-.28.73,1.26,1.26,0,0,0,1.14.66,9.65,9.65,0,0,0,3.69-.81.24.24,0,0,1,.29.1.26.26,0,0,1,0,.3l-.64.7,0,0a1.59,1.59,0,0,0,1.08.18l.44,0a3.35,3.35,0,0,1,1.65.06,1.61,1.61,0,0,1,.57.47l.1.11c1,1.11,3.49,1.31,5.72.47a.26.26,0,0,1,.24,0,.24.24,0,0,1,.1.22.54.54,0,0,0,.14.43,2.13,2.13,0,0,0,1.44.52,11.22,11.22,0,0,0,3.16-.45.25.25,0,0,1,.22.06c1,.84,3.07,1,5,.41a.23.23,0,0,1,.27.07.24.24,0,0,1,0,.27.31.31,0,0,0,0,.3c.14.27.72.5,1.57.63l11.33,1.73a.25.25,0,0,1,.21.28A.24.24,0,0,1,384.67,220.36Z"/><path d="M355.11,254h-.05l-17.15-3.23c-1.11-.21-2.44-.55-3-1.3a1.15,1.15,0,0,1-.2-.52,22.48,22.48,0,0,1-5.65,1.36,2.42,2.42,0,0,1-1-.06.7.7,0,0,1-.45-.49c-.12-.52.35-1.12.56-1.36l.17-.19a4.08,4.08,0,0,0,.66-.87,13.56,13.56,0,0,1-4.6.6.25.25,0,0,1-.2-.37l.51-.89-3.42.68c-.71.14-1.42.23-1.77-.14s.06-1,.45-1.48a4.94,4.94,0,0,0,.42-.54,18.91,18.91,0,0,1-4.5,1.68.25.25,0,0,1-.26-.1.24.24,0,0,1,0-.27l.42-.74a.24.24,0,0,1,.34-.1.26.26,0,0,1,.1.34l-.14.24a18.2,18.2,0,0,0,4.23-1.71.24.24,0,0,1,.33.08c.29.47-.15,1-.54,1.44-.24.29-.58.69-.46.82s.39.17,1.3,0l4-.78a.25.25,0,0,1,.25.1.24.24,0,0,1,0,.27l-.58,1a13,13,0,0,0,4.36-.71.28.28,0,0,1,.2,0,.25.25,0,0,1,.12.16c.16.55-.33,1.1-.81,1.63l-.17.18a1.39,1.39,0,0,0-.44.92s0,.09.15.14a2.06,2.06,0,0,0,.8,0,21.64,21.64,0,0,0,5.86-1.47.3.3,0,0,1,.26,0,.24.24,0,0,1,.08.24.75.75,0,0,0,.11.57c.46.68,2.09,1,2.63,1.09l17.16,3.23a.25.25,0,0,1,.2.29A.26.26,0,0,1,355.11,254Z"/><polygon class="cls-26" points="861.74 259.53 1006.35 182.91 903.92 128.65 759.31 205.26 861.74 259.53"/><path class="cls-27" d="M1006.35,182.91,861.63,259.6s.55-.05.59,2-.26,2.06-.26,2.06l144.33-76.53a2.14,2.14,0,0,0,.82-2C1007,183.09,1006.35,182.91,1006.35,182.91Z"/><path class="cls-27" d="M759.31,205.25l102.25,54.3s.88.4.88,2.4-.76,1.8-.76,1.8L759.31,209.13Z"/><path d="M790.55,226.2c-.24-.15-.33-.26-.33-.48V221.9a.5.5,0,0,1,0-.12l11-39.66a.38.38,0,0,1,.48-.27.4.4,0,0,1,.26.5L791,222V226C791,226.27,790.82,226.33,790.55,226.2Z"/><path d="M868.43,147.38c-.21,0-.22-.21-.11-.4a1.21,1.21,0,0,1,1-.44l65.76-1.8a1.3,1.3,0,0,1,.81.27c.2.28,0,.52-.17.53l-67.24,1.84Z"/><path class="cls-42" d="M813.79,202.46c-1.83.94-1.95,2.42-.27,3.31L859.35,230a7.71,7.71,0,0,0,6.34-.11l18.37-9.49c1.83-.95,2-2.43.27-3.31L838.5,192.86a7.64,7.64,0,0,0-6.34.11Z"/><line class="cls-10" x1="874.12" y1="221.14" x2="831.37" y2="198.4"/><line class="cls-10" x1="867.34" y1="224.73" x2="824.6" y2="201.99"/><polygon class="cls-23" points="881.27 251.89 981.96 150 860.79 120.72 760.2 222.51 881.27 251.89"/><path class="cls-43" d="M982,150,881.21,251.83s.5.09.53,2.15-.4,2-.4,2L981.89,154.22a2.07,2.07,0,0,0,.9-2C982.68,150.2,982,150,982,150Z"/><path class="cls-6" d="M760.2,222.51l121,29.32a3.08,3.08,0,0,1,.82,2.22c0,2.13-.9,1.95-.9,1.95L760.2,226.39Z"/><path d="M948.05,188a.61.61,0,0,1-.33-.53v-3.75a.5.5,0,0,1,0-.12l-6.08-43.45a.38.38,0,0,1,.47-.28.41.41,0,0,1,.26.51l6.1,43.4v4.08C948.49,188.05,948.31,188.1,948.05,188Z"/><path class="cls-42" d="M862,158.23c-1.33,1.37-.87,2.84,1,3.29l52.1,12.35a6.82,6.82,0,0,0,5.85-1.66l13.38-13.75c1.33-1.37.86-2.84-1-3.29l-52.1-12.35a6.81,6.81,0,0,0-5.85,1.66Z"/><line class="cls-22" x1="925.41" y1="161.63" x2="876.76" y2="149.96"/><line class="cls-22" x1="920.5" y1="166.79" x2="871.85" y2="155.12"/><path d="M908.27,224.51h0a.32.32,0,0,0-.17-.28.34.34,0,0,0-.25,0h0l-74.25,15.17a.5.5,0,0,0-.41.49h0V244a.33.33,0,0,0,.42.33.52.52,0,0,0,.43-.48v-3.72l73.39-15v3.68a.33.33,0,0,0,.43.33.51.51,0,0,0,.42-.48v-4.1Z"/><polygon class="cls-22" points="885.75 249.75 995.1 152.06 877.89 117.64 768.65 215.23 885.75 249.75"/><path class="cls-43" d="M995.1,152.06,885.69,249.68s.49.11.33,2.17-.58,1.94-.58,1.94l109.19-97.5a2.23,2.23,0,0,0,1.08-2C995.79,152.3,995.1,152.06,995.1,152.06Z"/><path class="cls-6" d="M768.65,215.23l117,34.45a3,3,0,0,1,.61,2.26c-.21,2.13-1.08,1.91-1.08,1.91L768.28,219.11Z"/><path d="M957.92,188.6a.56.56,0,0,1-.26-.54l.35-3.75a.53.53,0,0,1,0-.12l-1.91-43.73a.38.38,0,1,1,.7.26l1.94,43.68-.39,4.09C958.36,188.71,958.17,188.76,957.92,188.6Z"/><polygon class="cls-44" points="892.41 195.61 892.41 195.61 890.17 195.51 890.17 195.51 890.17 195.51 890.17 195.51 892.41 195.61 892.41 195.61 892.41 195.61"/><path class="cls-42" d="M875.52,155.22c-1.45,1.31-1.12,2.81.72,3.34l50.42,14.56a7,7,0,0,0,6-1.41l14.55-13.2c1.44-1.31,1.12-2.8-.72-3.34L896,140.62a7,7,0,0,0-6,1.41Z"/><line class="cls-22" x1="938" y1="161.31" x2="890.93" y2="147.57"/><line class="cls-22" x1="932.66" y1="166.26" x2="885.59" y2="152.53"/><path d="M915.08,223.5h0a.29.29,0,0,0-.14-.28.41.41,0,0,0-.25-.06h0l-75,12a.54.54,0,0,0-.45.47h0l-.39,4.11a.31.31,0,0,0,.39.34.55.55,0,0,0,.46-.46l.35-3.72L914.18,224l-.34,3.68a.31.31,0,0,0,.38.35.55.55,0,0,0,.47-.46l.39-4.11Z"/><path class="cls-12" d="M936.58,203.54,900.35,223a9.69,9.69,0,0,1-8.22,0l-82-44.37c-2.27-1.22,4.11-16.13,6.36-17.34l44.28-31.84a9.75,9.75,0,0,1,8.23,0l88.41,50.66C959.72,181.37,938.83,202.33,936.58,203.54Z"/><path class="cls-4" d="M969.29,182.84a1.94,1.94,0,0,0,0-.24l.21-3.6-4.5,0-95.85-51.59a9.75,9.75,0,0,0-8.23,0l-65,35-3.64-.41-.24,4h0a2.85,2.85,0,0,0,1.7,2l98.43,53a9.71,9.71,0,0,0,8.23,0l67.15-36.14a2.82,2.82,0,0,0,1.66-2h0Z"/><path class="cls-5" d="M967.86,181l-67.15,36.15a9.75,9.75,0,0,1-8.23,0l-98.43-53c-2.28-1.22-2.29-3.21,0-4.43l67.15-36.14a9.75,9.75,0,0,1,8.23,0l98.43,53C970.1,177.8,970.11,179.79,967.86,181Z"/><polygon class="cls-12" points="886.09 207.33 880.08 210.46 881.25 211.09 886.8 208.27 886.09 207.33"/><polygon class="cls-12" points="874.23 200.92 868.23 204.04 869.39 204.67 874.78 201.82 874.23 200.92"/><polygon class="cls-12" points="862.21 194.55 856.41 197.69 857.58 198.32 862.89 195.34 862.21 194.55"/><polygon class="cls-12" points="850.3 188.08 844.5 191.22 845.67 191.85 851.04 188.78 850.3 188.08"/><polygon class="cls-12" points="838.33 181.64 832.53 184.78 833.7 185.41 839.07 182.34 838.33 181.64"/><polygon class="cls-12" points="826.1 175.12 820.21 178.16 821.37 178.79 827.03 175.73 826.1 175.12"/><polygon class="cls-12" points="814.09 168.64 808.2 171.69 809.36 172.31 815.28 169.12 814.09 168.64"/><path class="cls-21" d="M807.85,179.2a3.06,3.06,0,0,1-1.5-.48c-1.19-.76-1.81-2.32-1.69-4.3.21-3.57,2.65-7.5,5.54-9a3.51,3.51,0,0,1,5.48,3,.72.72,0,0,1-.65.79.74.74,0,0,1-.82-.64,2.49,2.49,0,0,0-1.11-2,2.44,2.44,0,0,0-2.22.21c-2.39,1.21-4.57,4.76-4.74,7.77-.09,1.44.28,2.54,1,3a2.34,2.34,0,0,0,2.33-.14.76.76,0,0,1,1,.31.72.72,0,0,1-.32,1A4.61,4.61,0,0,1,807.85,179.2Z"/><path class="cls-21" d="M819.74,185.74a3.06,3.06,0,0,1-1.5-.48c-1.19-.75-1.81-2.32-1.69-4.3.21-3.56,2.65-7.5,5.54-9a3.52,3.52,0,0,1,5.48,3,.71.71,0,0,1-.65.79.73.73,0,0,1-.82-.63,2.46,2.46,0,0,0-1.11-2,2.4,2.4,0,0,0-2.22.2c-2.39,1.21-4.57,4.77-4.74,7.77-.09,1.45.28,2.54,1,3a2.35,2.35,0,0,0,2.33-.15.76.76,0,0,1,1,.31.73.73,0,0,1-.32,1A4.69,4.69,0,0,1,819.74,185.74Z"/><path class="cls-21" d="M831.63,192.28a3.15,3.15,0,0,1-1.5-.47c-1.19-.76-1.81-2.33-1.69-4.3.21-3.57,2.64-7.51,5.54-9a3.92,3.92,0,0,1,3.6-.19,3.86,3.86,0,0,1,1.88,3.15.73.73,0,0,1-.65.8.75.75,0,0,1-.82-.64,2.48,2.48,0,0,0-1.11-2,2.41,2.41,0,0,0-2.22.21c-2.39,1.2-4.57,4.76-4.75,7.76-.08,1.45.29,2.54,1,3a2.37,2.37,0,0,0,2.33-.14.75.75,0,0,1,1,.31.72.72,0,0,1-.32,1A4.59,4.59,0,0,1,831.63,192.28Z"/><path class="cls-21" d="M843.52,198.83a3.16,3.16,0,0,1-1.5-.48c-1.19-.76-1.81-2.33-1.69-4.3.21-3.57,2.64-7.51,5.54-9a3.51,3.51,0,0,1,5.48,2.95.72.72,0,0,1-.65.8.74.74,0,0,1-.82-.64,2.49,2.49,0,0,0-1.11-2,2.44,2.44,0,0,0-2.22.21c-2.39,1.2-4.57,4.76-4.75,7.77-.08,1.44.29,2.54,1,3a2.37,2.37,0,0,0,2.33-.14.76.76,0,0,1,1,.31.72.72,0,0,1-.32,1A4.61,4.61,0,0,1,843.52,198.83Z"/><path class="cls-21" d="M855.41,205.37a3.06,3.06,0,0,1-1.5-.48c-1.19-.76-1.81-2.32-1.69-4.3.21-3.57,2.64-7.5,5.54-9a3.51,3.51,0,0,1,5.48,3,.72.72,0,0,1-.65.79.74.74,0,0,1-.82-.64,2.49,2.49,0,0,0-1.11-2,2.44,2.44,0,0,0-2.22.21c-2.39,1.21-4.57,4.76-4.75,7.77-.08,1.44.29,2.54,1,3a2.37,2.37,0,0,0,2.33-.15.76.76,0,0,1,1,.31.72.72,0,0,1-.32,1A4.61,4.61,0,0,1,855.41,205.37Z"/><path class="cls-21" d="M867.3,211.91a3.06,3.06,0,0,1-1.5-.48c-1.19-.75-1.81-2.32-1.69-4.3.21-3.56,2.64-7.5,5.54-9a3.52,3.52,0,0,1,5.48,3,.71.71,0,0,1-.65.79.73.73,0,0,1-.82-.63,2.46,2.46,0,0,0-1.11-2,2.4,2.4,0,0,0-2.22.2c-2.39,1.21-4.57,4.77-4.75,7.77-.08,1.45.29,2.54,1,3a2.35,2.35,0,0,0,2.33-.15.76.76,0,0,1,1,.31.73.73,0,0,1-.32,1A4.69,4.69,0,0,1,867.3,211.91Z"/><path class="cls-21" d="M879.19,218.45a3.15,3.15,0,0,1-1.5-.47c-1.19-.76-1.81-2.33-1.69-4.3.21-3.57,2.64-7.51,5.54-9a3.92,3.92,0,0,1,3.6-.19,3.86,3.86,0,0,1,1.88,3.15.73.73,0,0,1-.65.8.75.75,0,0,1-.82-.64,2.48,2.48,0,0,0-1.11-2,2.41,2.41,0,0,0-2.22.21c-2.39,1.2-4.57,4.76-4.75,7.76-.08,1.45.29,2.54,1,3a2.37,2.37,0,0,0,2.33-.14.75.75,0,0,1,1,.31.72.72,0,0,1-.32,1A4.59,4.59,0,0,1,879.19,218.45Z"/><polygon class="cls-42" points="884.04 153.82 853.15 170.4 833.72 159.81 864.6 143.23 884.04 153.82"/><ellipse class="cls-12" cx="390.25" cy="154.99" rx="20.86" ry="10.43"/><path class="cls-5" d="M364.67,115.54h43.4l-1.6,40h0s0,.08,0,.13c0,5.55-9,10.05-20.1,10.05s-20.09-4.5-20.09-10.05v-.13h0Z"/><path class="cls-45" d="M379.56,125.49l27.81-10.29-.9,40.34h0s0,.08,0,.13c0,4-4.7,7.46-11.48,9.08,0,0,.5-19.44.5-29.56S379.56,125.49,379.56,125.49Z"/><path class="cls-46" d="M364.67,115.54c0,6,9.71,11.07,21.7,11.07s21.7-5.08,21.7-11.07-9.71-10.64-21.7-10.64S364.67,109.55,364.67,115.54Z"/><ellipse class="cls-4" cx="386.37" cy="115.76" rx="19.38" ry="9.69"/><g class="cls-47"><path class="cls-26" d="M385.48,156.22a4.33,4.33,0,0,0,3.79-1.66,1.47,1.47,0,0,0,.23-1.32l-.66-1.79-5.5,2,.66,1.82A1.64,1.64,0,0,0,385.48,156.22Z"/><ellipse cx="386.11" cy="152.51" rx="2.93" ry="1.79" transform="translate(-28.93 143.53) rotate(-20.31)"/><path class="cls-21" d="M384.87,154.84a4.62,4.62,0,0,0,4.05-1.78,1.54,1.54,0,0,0,.24-1.41l-16.29-44.54L367,109.27l16.29,44.56A1.75,1.75,0,0,0,384.87,154.84Z"/><path class="cls-5" d="M368.92,107.85,367,109.27l16.29,44.56a1.75,1.75,0,0,0,1.59,1,4.14,4.14,0,0,0,1.35-.09"/><path class="cls-48" d="M368.19,110.05a5.07,5.07,0,0,0,4.44-2,1.69,1.69,0,0,0,.27-1.55L366.14,88.1l-6.46,2.37,6.76,18.47A2,2,0,0,0,368.19,110.05Z"/><path class="cls-21" d="M368.19,110.05a5.07,5.07,0,0,0,4.44-2,1.69,1.69,0,0,0,.27-1.55L366.14,88.1l-6.46,2.37,6.76,18.47A2,2,0,0,0,368.19,110.05Z"/><path class="cls-5" d="M361.77,89.7l-2.09.77,6.76,18.47a2,2,0,0,0,1.75,1.11,4.23,4.23,0,0,0,.94,0"/><ellipse cx="362.93" cy="89.34" rx="3.44" ry="2.1" transform="translate(-8.44 131.56) rotate(-20.31)"/><path class="cls-26" d="M361.52,91.44a4.71,4.71,0,0,0,4.15-1.82,1.57,1.57,0,0,0,.25-1.45l-.72-2-6,2.22.73,2A1.8,1.8,0,0,0,361.52,91.44Z"/><ellipse class="cls-26" cx="362.2" cy="87.37" rx="3.22" ry="1.97" transform="translate(-7.8 131.18) rotate(-20.31)"/><path class="cls-7" d="M411,98.05,398.37,128l-1.58,1s-.12-.29-.92-.66a2.73,2.73,0,0,0-1.62-.19l-.56-2.27,12.07-30.17Z"/><line class="cls-10" x1="407.18" y1="95.56" x2="394.22" y2="128"/><line class="cls-10" x1="396.86" y1="128.92" x2="409.99" y2="96.37"/><path class="cls-21" d="M407.09,94.9c1.34-.05,4,.14,4.71,1.16l-.84,2a1.59,1.59,0,0,1-1.27.51A4.81,4.81,0,0,1,406,96.82a1.2,1.2,0,0,1-.32-1c.21-.62.51-1.2.79-2S406.76,94.92,407.09,94.9Z"/><path class="cls-17" d="M408,90.2s-1.55,3.56-1.57,3.64a1.39,1.39,0,0,0,.25,1.35,4.74,4.74,0,0,0,3.65,1.7,1.43,1.43,0,0,0,1.46-.83c.1-.22,1.49-3.67,1.49-3.67a2.47,2.47,0,0,0-1.65-3.08l-.21-.09A2.58,2.58,0,0,0,408,90.2Z"/><path class="cls-17" d="M408.54,90.3a2.12,2.12,0,0,0,1.27,2c1.85.87,2.79,0,2.79,0"/><path class="cls-21" d="M393,83.4l-1-3.35a2,2,0,0,0-1.09-.41,2,2,0,0,0-1.14.24L388.25,83a6.87,6.87,0,0,0-.66,2.43l-.16,2.24,2.84.22,2.85.21.17-2.24A6.83,6.83,0,0,0,393,83.4Z"/><path class="cls-12" d="M392,80.05l-.39-1.27a.68.68,0,0,0-1.27-.09l-.57,1.19a2,2,0,0,1,1.14-.24A2,2,0,0,1,392,80.05Z"/><path class="cls-17" d="M390.4,86.24c-1.57-.12-2.9.54-3,1.47l-4.69,66.07,2.85.21,2.85.22,4.68-66.07C393.19,87.21,392,86.36,390.4,86.24Z"/><path class="cls-49" d="M391.22,79.69l-.32,0h-.11l.14,3.32a18,18,0,0,1,0,2.08l-.1,1.25-.09,1.23,0,.44L386,154l1.75.14,4.69-66.07V88l.08-1,.09-1.23a6.86,6.86,0,0,0-.28-2.51Z"/><ellipse class="cls-50" cx="385.59" cy="153.99" rx="1.69" ry="2.85" transform="translate(203.1 526.94) rotate(-85.7)"/><ellipse class="cls-51" cx="385.52" cy="154.95" rx="1.17" ry="1.97" transform="translate(202.08 527.76) rotate(-85.7)"/><line class="cls-42" x1="390.76" y1="78.69" x2="390.43" y2="79.38"/><polyline class="cls-52" points="376 84.88 371.75 77.6 371.1 86.02"/><path class="cls-26" d="M374,84.15c-1.38.1-2.64.87-2.82,1.72a.87.87,0,0,0,0,.36h0l12.45,54.61h0l5-1.15h0L376.13,85.13h0C376,84.48,375.13,84.06,374,84.15Z"/><line class="cls-10" x1="374.33" y1="84.14" x2="387.07" y2="140.05"/><path class="cls-53" d="M371.75,77.6l-.25,3.13a1.44,1.44,0,0,1,.82-.59,1.5,1.5,0,0,1,1,.17Z"/><line class="cls-54" x1="372.38" y1="84.82" x2="385.08" y2="140.51"/><ellipse class="cls-52" cx="386.09" cy="140.32" rx="2.56" ry="1.48" transform="translate(-21.88 92.24) rotate(-13.25)"/><ellipse class="cls-53" cx="386.09" cy="140.32" rx="1.1" ry="0.64" transform="translate(-21.88 92.24) rotate(-13.25)"/></g><polygon class="cls-12" points="253.55 224.71 296.7 237.88 218.3 252.33 197.78 235 253.55 224.71"/><polygon class="cls-4" points="199.77 236.67 208.56 203.93 212.48 203.67 220.64 232.97 199.77 236.67"/><polygon class="cls-19" points="213.37 248 208.56 203.93 247.89 198.09 252.86 240.65 213.37 248"/><path class="cls-21" d="M284.07,171.65l2.14,10.2,1.52,8L281,236.18l-62.62,15.38-2.27-1.79-7.58-45.84.7-1.65Zm-16.79,6.21c.07.37,12.84-1.71,13.15-1.77a.63.63,0,0,0,.44-.78.66.66,0,0,0-.7-.59C279.86,174.78,267.21,177.48,267.28,177.86Zm-25.4,5.34a.71.71,0,1,0-.7-.58A.67.67,0,0,0,241.88,183.2Z"/><path class="cls-55" d="M267.32,177.15l.06,0c0,.24,12.66-1.91,12.84-1.83a.57.57,0,0,0,.26,0,.5.5,0,0,0,.34-.28.76.76,0,0,0,0-.43.69.69,0,0,0-.38-.51.39.39,0,0,0-.26,0c-.15,0-12.73,2.47-12.8,2.62a.76.76,0,0,0,0,.43l-.06,0-.05,0a.87.87,0,0,1,.05-.51c.09-.18,12.7-2.67,12.9-2.7a.48.48,0,0,1,.31,0,.8.8,0,0,1,.44.58.87.87,0,0,1-.06.51.62.62,0,0,1-.43.36.54.54,0,0,1-.31,0c-.22-.09-12.85,2-12.9,1.76Zm-25.4,5.34v-.06a.48.48,0,0,0,.34-.28.76.76,0,0,0,0-.43.69.69,0,0,0-.38-.51.39.39,0,0,0-.26,0,.44.44,0,0,0-.33.28.68.68,0,0,0-.05.43.71.71,0,0,0,.38.51.46.46,0,0,0,.26,0v.12a.55.55,0,0,1-.31,0,.81.81,0,0,1-.44-.58.87.87,0,0,1,.06-.51.62.62,0,0,1,.43-.36.55.55,0,0,1,.31,0,.79.79,0,0,1,.44.58.87.87,0,0,1-.06.51.62.62,0,0,1-.43.36Z"/><path class="cls-51" d="M205.61,184.67l16.55-2.62L234,180.17l-14.9,9.66-10.55,14.1L205,185.62Zm19.69.18a.64.64,0,0,0,.69.58.65.65,0,0,0,.44-.79.66.66,0,0,0-.7-.58A.63.63,0,0,0,225.3,184.85Zm-15.93,2.94a.58.58,0,1,0,.43-.79A.64.64,0,0,0,209.37,187.79Z"/><path class="cls-55" d="M225.3,184.85l0,0a.71.71,0,0,0,.38.51.46.46,0,0,0,.26,0,.48.48,0,0,0,.34-.28.76.76,0,0,0,0-.43.69.69,0,0,0-.38-.51.39.39,0,0,0-.26,0,.44.44,0,0,0-.33.28.68.68,0,0,0-.05.43l0,0-.06,0a.87.87,0,0,1,.06-.51.62.62,0,0,1,.43-.36.55.55,0,0,1,.31,0,.77.77,0,0,1,.44.58.87.87,0,0,1-.06.51.62.62,0,0,1-.43.36.55.55,0,0,1-.31,0,.81.81,0,0,1-.44-.58Zm-15.93,2.94,0,0a.71.71,0,0,0,.38.51.46.46,0,0,0,.26,0,.48.48,0,0,0,.34-.28.76.76,0,0,0,0-.43.69.69,0,0,0-.38-.51.39.39,0,0,0-.26,0,.44.44,0,0,0-.33.28.68.68,0,0,0-.05.43l0,0-.06,0a.87.87,0,0,1,.06-.51.62.62,0,0,1,.43-.36.55.55,0,0,1,.31,0,.79.79,0,0,1,.44.58.87.87,0,0,1-.06.51.62.62,0,0,1-.43.36.55.55,0,0,1-.31,0,.81.81,0,0,1-.44-.58Z"/><polyline class="cls-21" points="209.28 202.89 288.35 188.31 297.48 236.99 218.41 251.56 209.28 202.89"/><polyline class="cls-19" points="270.95 197.8 272.68 206.92 261.39 209 259.66 199.88 270.95 197.8"/><polyline class="cls-21" points="273.11 209.2 275.28 220.6 263.99 222.68 262.25 213.56 273.54 211.48 273.11 209.2"/><polyline class="cls-21" points="275.71 222.88 277.88 234.28 266.59 236.36 264.85 227.24 276.14 225.16 275.71 222.88"/><polyline class="cls-12" points="259.22 197.6 270.51 195.52 270.95 197.8 259.66 199.88 259.22 197.6"/><polyline class="cls-12" points="261.82 211.28 273.11 209.2 273.54 211.48 262.25 213.56 261.82 211.28"/><polyline class="cls-12" points="264.42 224.96 275.71 222.88 276.14 225.16 264.85 227.24 264.42 224.96"/><polyline class="cls-19" points="285.43 195.04 287.16 204.16 275.87 206.25 274.13 197.13 285.43 195.04"/><polyline class="cls-14" points="287.59 206.44 289.76 217.84 278.47 219.93 276.73 210.8 288.02 208.72 287.59 206.44"/><polyline class="cls-21" points="290.19 220.12 292.36 231.52 281.06 233.6 279.33 224.48 290.62 222.4 290.19 220.12"/><polyline class="cls-12" points="273.7 194.85 284.99 192.76 285.43 195.04 274.13 197.13 273.7 194.85"/><polyline class="cls-12" points="276.3 208.52 287.59 206.44 288.02 208.72 276.73 210.8 276.3 208.52"/><polyline class="cls-12" points="278.9 222.21 290.19 220.12 290.62 222.4 279.33 224.48 278.9 222.21"/><polyline class="cls-5" points="255.91 198.19 258.07 209.59 246.78 211.67 245.05 202.55 256.34 200.47 255.91 198.19"/><polyline class="cls-19" points="258.5 211.87 260.67 223.27 249.38 225.35 247.65 216.23 258.94 214.15 258.5 211.87"/><polyline class="cls-21" points="261.1 225.55 263.27 236.95 251.98 239.03 250.25 229.91 261.54 227.82 261.1 225.55"/><polyline class="cls-12" points="244.62 200.27 255.91 198.19 256.34 200.47 245.05 202.55 244.62 200.27"/><polyline class="cls-12" points="247.22 213.95 258.5 211.87 258.94 214.15 247.65 216.23 247.22 213.95"/><polyline class="cls-12" points="249.82 227.63 261.1 225.55 261.54 227.82 250.25 229.91 249.82 227.63"/><polyline class="cls-19" points="241.39 200.83 243.56 212.23 232.27 214.32 230.53 205.2 241.82 203.11 241.39 200.83"/><polyline class="cls-19" points="243.99 214.51 246.16 225.91 234.87 228 233.13 218.88 244.42 216.79 243.99 214.51"/><polyline class="cls-17" points="246.59 228.19 248.75 239.59 237.47 241.68 235.73 232.56 247.02 230.47 246.59 228.19"/><polyline class="cls-12" points="230.1 202.92 241.39 200.83 241.82 203.11 230.53 205.2 230.1 202.92"/><polyline class="cls-12" points="232.7 216.59 243.99 214.51 244.42 216.79 233.13 218.88 232.7 216.59"/><polyline class="cls-12" points="235.3 230.28 246.59 228.19 247.02 230.47 235.73 232.56 235.3 230.28"/><polyline class="cls-14" points="226.73 203.53 228.89 214.93 217.6 217.01 215.87 207.89 227.16 205.81 226.73 203.53"/><polyline class="cls-21" points="229.33 217.21 231.49 228.61 220.2 230.69 218.47 221.57 229.76 219.49 229.33 217.21"/><polyline class="cls-48" points="232.36 233.17 234.09 242.29 222.8 244.37 221.07 235.25 232.36 233.17"/><polyline class="cls-12" points="215.44 205.61 226.73 203.53 227.16 205.81 215.87 207.89 215.44 205.61"/><polyline class="cls-12" points="218.04 219.29 229.33 217.21 229.76 219.49 218.47 221.57 218.04 219.29"/><polyline class="cls-12" points="220.64 232.97 231.93 230.89 232.36 233.17 221.07 235.25 220.64 232.97"/><path class="cls-7" d="M234.58,179.33l50.11-9.23,2.14,10.2,1.52,8-58.46,10.77-20.61,3.8-3.67-18.22Z"/><path d="M263.57,176.31a.71.71,0,1,1-.43.79.64.64,0,0,1,.43-.79"/><path d="M231.09,182.2a.66.66,0,0,1,.7.58.65.65,0,0,1-.44.79.71.71,0,0,1-.26-1.37"/><path d="M211.9,185.64a.71.71,0,1,1-.43.79.64.64,0,0,1,.43-.79"/><path d="M282,172.77a.71.71,0,0,1,.26,1.37.67.67,0,0,1-.7-.58.64.64,0,0,1,.44-.79"/><path d="M240.44,205.5a31.91,31.91,0,0,1-4.56,6.34c-.48.52-1.12-.19-.64-.7a31,31,0,0,0,4.39-6.12.47.47,0,1,1,.81.48Z"/><path d="M239.5,210.64a29.15,29.15,0,0,1-4.57-3.25.57.57,0,0,1,0-.75.47.47,0,0,1,.68,0,28.32,28.32,0,0,0,4.39,3.1c.53.3,0,1.25-.55.95Z"/><path d="M253.34,231.52a33,33,0,0,1,7.31,3.16c.61.36,0,1.14-.59.78a31.16,31.16,0,0,0-7.05-3c-.69-.21-.36-1.1.33-.9Z"/><path d="M255.27,236.05a30.7,30.7,0,0,0,3.9-4.4c.15-.21,0-.57-.25-.71a.55.55,0,0,0-.73.15,29.8,29.8,0,0,1-3.74,4.2c-.47.44.35,1.2.82.76Z"/><polygon class="cls-56" points="412.76 245.33 399.19 238.49 340.66 268.15 341.21 268.6 337.35 271.11 348.2 276.27 352.2 274.3 353.53 274.93 412.76 245.33"/><path class="cls-57" d="M409.7,237.11a.49.49,0,0,0-.15-.1l-12.05-6a.44.44,0,0,0-.44,0l-16.88,8.44,12.91,13L410,244h0a.59.59,0,0,0,.26-.56v-5.17A1.61,1.61,0,0,0,409.7,237.11Z"/><path class="cls-58" d="M387.66,249.45l5.43,3L410,244h0a.59.59,0,0,0,.26-.56v-5.17"/><path d="M392.66,252.4l-12-6a1.48,1.48,0,0,1-.7-1.24V240c0-.49.32-.73.7-.54l12.05,6a1.5,1.5,0,0,1,.7,1.24v5.17C393.36,252.35,393.05,252.59,392.66,252.4Z"/><path class="cls-59" d="M392.87,245.54l-.16-.1-12-6a.48.48,0,0,0-.45,0l-42.71,21.32,12.91,13,42.74-21.33h0a.63.63,0,0,0,.26-.56v-5.18A1.61,1.61,0,0,0,392.87,245.54Z"/><path class="cls-60" d="M349.42,268.47l1,5.28,42.74-21.33h0a.63.63,0,0,0,.26-.56v-5.18"/><path class="cls-58" d="M350,273.72l-12.05-6a1.49,1.49,0,0,1-.69-1.24v-5.17c0-.49.31-.73.7-.54l12.05,6a1.49,1.49,0,0,1,.69,1.24v5.17C350.69,273.67,350.37,273.91,350,273.72Z"/><path class="cls-57" d="M349.26,267.62a.41.41,0,0,0-.11-.07l-10.83-5.4a.35.35,0,0,0-.33,0l-4.24,2.14,11.52,10.6,4.21-2.12h0a.46.46,0,0,0,.19-.42v-3.87A1.21,1.21,0,0,0,349.26,267.62Z"/><path class="cls-58" d="M344,271.59l1.3,3.29,4.21-2.12h0a.46.46,0,0,0,.19-.42v-3.87"/><path class="cls-58" d="M345,274.86l-10.83-5.39a1.12,1.12,0,0,1-.52-.93v-3.86c0-.37.24-.55.52-.4l10.83,5.39a1.12,1.12,0,0,1,.52.93v3.86C345.47,274.83,345.23,275,345,274.86Z"/><path class="cls-58" d="M399,229.85l-20.38,10.28v1.34l8.55,4.31L407.5,235.5v-1.34Z"/><path class="cls-57" d="M378.58,240.13l8.55,4.31,20.37-10.28L399,229.85Z"/><path class="cls-61" d="M815.93,255.38c0-6.56-10.68-11.88-23.85-11.88s-23.86,5.32-23.86,11.88c0,.13,0,.27,0,.41h0v.15s0,.05,0,.07l5,58.65c0,5.18,8.43,9.38,18.84,9.38s18.83-4.2,18.83-9.38l5-58.13h-.12A5.62,5.62,0,0,0,815.93,255.38Z"/><path class="cls-10" d="M768.24,255.79l5,58.87c0,5.18,8.43,9.38,18.84,9.38s18.83-4.2,18.83-9.38l5-58.13"/><ellipse class="cls-10" cx="792.08" cy="314.79" rx="18.57" ry="9.24"/><path class="cls-12" d="M811.44,307.41l-.53,6.57a5,5,0,0,1-.43,2c-1,3.87-6.78,7-14.31,7.84,1.32.15,6.31-.3,7.72-.36,10.41-.42,15-3.55,15-8.66C818.84,311.78,815.93,309.1,811.44,307.41Z"/><ellipse class="cls-10" cx="792.08" cy="255.38" rx="23.85" ry="11.87"/><path class="cls-62" d="M808.92,308.61H775.23l.36,4.67c.28,4.55,7.29,8.14,16.49,8.14s16.11-3.08,16.39-7.63Z"/><ellipse class="cls-22" cx="792.08" cy="308.61" rx="16.84" ry="8.38"/><path class="cls-10" d="M786.71,313.93v-37.2a5.17,5.17,0,0,1,5.15-5.15h0a5.17,5.17,0,0,1,5.15,5.15v37"/><path class="cls-10" d="M775.23,308.61l-2.47-36.89c-.14-2.83,1.78-4.39,4.25-3.47h0a8.16,8.16,0,0,1,4.73,6.81l1.73,37.16"/><path class="cls-10" d="M808.92,308.61l2.33-36.89c.14-2.83-1.78-4.39-4.25-3.47h0a8.16,8.16,0,0,0-4.73,6.81l-1.73,37.16"/><ellipse class="cls-12" cx="933.02" cy="292.66" rx="18.5" ry="6.17"/><path class="cls-63" d="M927.21,254.7a36.86,36.86,0,0,0,7.54.19c5.16-.25,13.44,0,16.74,9.54s-1.12,26-14,31.54c-3.93,1.29-4.31-.39-6.59-.39s-3.55,1.4-7.89.05-15.83-9.95-14.89-27S924.66,254.7,927.21,254.7Z"/><path class="cls-64" d="M923.32,255.28s-2.56,2.38,1.64,4.44-6,5.66-6.86,10-7.8,4-8.45-2.57S915.53,254.39,923.32,255.28Z"/><path class="cls-10" d="M925.46,256.79s-1,2,2.83,2.67,7.76-.69,7.31-2.11-2.18-1.39-3.58-1.67l.06.08"/><path class="cls-12" d="M928.91,258s1.85.63,2.82.12-.91-.58-.91-.58-.24-9.74-3.09-11.09c0,0-.48-.27-.8.46s.41,1.59.9,2,1.13,3.65,1.38,8.79C929.21,257.66,928.1,257.79,928.91,258Z"/><path class="cls-65" d="M938.13,250.94a3.28,3.28,0,0,0,2.31,0c1.19-.45,2.17-.13,2.57-.37,0,0-1.3-.05-1.86,0s-1.86.67-2.62,0l-.48.29"/><path class="cls-14" d="M955.91,244c-2.08.21-1.4-.78-4.18-1.39s-4.64-2.73-12.09,2.11a20.27,20.27,0,0,0-4.36,3.67,6.61,6.61,0,0,0-2.12,4.5,9.93,9.93,0,0,0-3.2,3.36c-.63,1,.83,1.66.83,1.66a6,6,0,0,1,2.49-4.13,0,0,0,0,0,0,0v0h0c.35.37,1.86,1.62,5.1.24,3.75-1.61,5-3.11,7.78-3.73S956.57,247.68,955.91,244Z"/></g></g></svg>